<svg version="1.1" viewBox="0.0 0.0 423.7742782152231 449.03412073490813" fill="none" stroke="none" stroke-linecap="square" stroke-miterlimit="10" xmlns:xlink="http://www.w3.org/1999/xlink" xmlns="http://www.w3.org/2000/svg"><clipPath id="p.0"><path d="m0 0l423.7743 0l0 449.03412l-423.7743 0l0 -449.03412z" clip-rule="nonzero"/></clipPath><g clip-path="url(#p.0)"><path fill="#ffffff" d="m0 0l423.7743 0l0 449.03412l-423.7743 0z" fill-rule="evenodd"/><path fill="#000000" fill-opacity="0.0" d="m43.251312 78.872375l180.50394 0l0 382.99213l-180.50394 0z" fill-rule="evenodd"/><path fill="#000000" fill-opacity="0.0" d="m52.251312 91.696785l18.00293 0l0 33.984375l-18.00293 0l0 -33.984375z" fill-rule="nonzero"/><path fill="#000000" d="m62.782562 97.23487l0 16.4375l3.03125 0q1.09375 0 1.546875 0.421875q0.46875 0.40625 0.46875 1.078125q0 0.671875 -0.46875 1.09375q-0.453125 0.40625 -1.546875 0.40625l-9.0625 0q-1.09375 0 -1.5625 -0.40625q-0.453125 -0.421875 -0.453125 -1.109375q0 -0.65625 0.453125 -1.0625q0.46875 -0.421875 1.5625 -0.421875l3.03125 0l0 -12.53125l-2.6875 0.703125q-0.640625 0.171875 -0.96875 0.171875q-0.5625 0 -0.984375 -0.453125q-0.421875 -0.453125 -0.421875 -1.109375q0 -0.59375 0.3125 -0.9375q0.3125 -0.34375 1.296875 -0.609375l6.453125 -1.671875z" fill-rule="nonzero"/><path fill="#000000" d="m85.81674 105.531746l0 3.28125q0 2.9375 -1.703125 5.625q-1.6875 2.671875 -4.828125 2.671875q-1.828125 0 -3.078125 -0.796875q-1.25 -0.796875 -2.375 -2.9375q-1.109375 -2.15625 -1.109375 -4.5625l0 -3.28125q0 -2.921875 1.671875 -5.609375q1.6875 -2.6875 4.84375 -2.6875q1.796875 0 3.046875 0.796875q1.25 0.78125 2.390625 2.9375q1.140625 2.140625 1.140625 4.5625zm-3.015625 0q0 -2.453125 -1.375 -4.28125q-0.765625 -1.015625 -2.171875 -1.015625q-1.375 0 -2.234375 1.109375q-1.296875 1.6875 -1.296875 4.1875l0 3.28125q0 2.46875 1.375 4.28125q0.765625 1.015625 2.1875 1.015625q1.34375 0 2.203125 -1.109375q1.3125 -1.6875 1.3125 -4.1875l0 -3.28125zm15.987305 -8.296875l0 16.4375l3.03125 0q1.09375 0 1.546875 0.421875q0.46875 0.40625 0.46875 1.078125q0 0.671875 -0.46875 1.09375q-0.453125 0.40625 -1.546875 0.40625l-9.0625 0q-1.09375 0 -1.5625 -0.40625q-0.453125 -0.421875 -0.453125 -1.109375q0 -0.65625 0.453125 -1.0625q0.46875 -0.421875 1.5625 -0.421875l3.03125 0l0 -12.53125l-2.6875 0.703125q-0.640625 0.171875 -0.96875 0.171875q-0.5625 0 -0.984375 -0.453125q-0.421875 -0.453125 -0.421875 -1.109375q0 -0.59375 0.3125 -0.9375q0.3125 -0.34375 1.296875 -0.609375l6.453125 -1.671875zm23.03418 8.296875l0 3.28125q0 2.9375 -1.703125 5.625q-1.6875 2.671875 -4.828125 2.671875q-1.828125 0 -3.078125 -0.796875q-1.25 -0.796875 -2.375 -2.9375q-1.109375 -2.15625 -1.109375 -4.5625l0 -3.28125q0 -2.921875 1.671875 -5.609375q1.6875 -2.6875 4.84375 -2.6875q1.796875 0 3.046875 0.796875q1.25 0.78125 2.390625 2.9375q1.140625 2.140625 1.140625 4.5625zm-3.015625 0q0 -2.453125 -1.375 -4.28125q-0.765625 -1.015625 -2.171875 -1.015625q-1.375 0 -2.234375 1.109375q-1.296875 1.6875 -1.296875 4.1875l0 3.28125q0 2.46875 1.375 4.28125q0.765625 1.015625 2.1875 1.015625q1.34375 0 2.203125 -1.109375q1.3125 -1.6875 1.3125 -4.1875l0 -3.28125zm21.018555 0l0 3.28125q0 2.9375 -1.703125 5.625q-1.6875 2.671875 -4.828125 2.671875q-1.828125 0 -3.078125 -0.796875q-1.25 -0.796875 -2.375 -2.9375q-1.109375 -2.15625 -1.109375 -4.5625l0 -3.28125q0 -2.921875 1.671875 -5.609375q1.6875 -2.6875 4.84375 -2.6875q1.796875 0 3.046875 0.796875q1.25 0.78125 2.390625 2.9375q1.140625 2.140625 1.140625 4.5625zm-3.015625 0q0 -2.453125 -1.375 -4.28125q-0.765625 -1.015625 -2.171875 -1.015625q-1.375 0 -2.234375 1.109375q-1.296875 1.6875 -1.296875 4.1875l0 3.28125q0 2.46875 1.375 4.28125q0.765625 1.015625 2.1875 1.015625q1.34375 0 2.203125 -1.109375q1.3125 -1.6875 1.3125 -4.1875l0 -3.28125zm15.987305 -8.296875l0 16.4375l3.03125 0q1.09375 0 1.546875 0.421875q0.46875 0.40625 0.46875 1.078125q0 0.671875 -0.46875 1.09375q-0.453125 0.40625 -1.546875 0.40625l-9.0625 0q-1.09375 0 -1.5625 -0.40625q-0.453125 -0.421875 -0.453125 -1.109375q0 -0.65625 0.453125 -1.0625q0.46875 -0.421875 1.5625 -0.421875l3.03125 0l0 -12.53125l-2.6875 0.703125q-0.640625 0.171875 -0.96875 0.171875q-0.5625 0 -0.984375 -0.453125q-0.421875 -0.453125 -0.421875 -1.109375q0 -0.59375 0.3125 -0.9375q0.3125 -0.34375 1.296875 -0.609375l6.453125 -1.671875zm23.03418 8.296875l0 3.28125q0 2.9375 -1.703125 5.625q-1.6875 2.671875 -4.828125 2.671875q-1.828125 0 -3.078125 -0.796875q-1.25 -0.796875 -2.375 -2.9375q-1.109375 -2.15625 -1.109375 -4.5625l0 -3.28125q0 -2.921875 1.671875 -5.609375q1.6875 -2.6875 4.84375 -2.6875q1.796875 0 3.046875 0.796875q1.25 0.78125 2.390625 2.9375q1.140625 2.140625 1.140625 4.5625zm-3.015625 0q0 -2.453125 -1.375 -4.28125q-0.765625 -1.015625 -2.171875 -1.015625q-1.375 0 -2.234375 1.109375q-1.296875 1.6875 -1.296875 4.1875l0 3.28125q0 2.46875 1.375 4.28125q0.765625 1.015625 2.1875 1.015625q1.34375 0 2.203125 -1.109375q1.3125 -1.6875 1.3125 -4.1875l0 -3.28125zm21.018555 0l0 3.28125q0 2.9375 -1.703125 5.625q-1.6875 2.671875 -4.828125 2.671875q-1.828125 0 -3.078125 -0.796875q-1.25 -0.796875 -2.375 -2.9375q-1.109375 -2.15625 -1.109375 -4.5625l0 -3.28125q0 -2.921875 1.671875 -5.609375q1.6875 -2.6875 4.84375 -2.6875q1.796875 0 3.046875 0.796875q1.25 0.78125 2.390625 2.9375q1.140625 2.140625 1.140625 4.5625zm-3.015625 0q0 -2.453125 -1.375 -4.28125q-0.765625 -1.015625 -2.171875 -1.015625q-1.375 0 -2.234375 1.109375q-1.296875 1.6875 -1.296875 4.1875l0 3.28125q0 2.46875 1.375 4.28125q0.765625 1.015625 2.1875 1.015625q1.34375 0 2.203125 -1.109375q1.3125 -1.6875 1.3125 -4.1875l0 -3.28125z" fill-rule="nonzero"/><path fill="#000000" d="m52.251312 118.622375l18.00293 0l0 2.699997l-18.00293 0l0 -2.699997z" fill-rule="nonzero"/><path fill="#000000" fill-opacity="0.0" d="m52.251312 145.69678l18.00293 0l0 33.984375l-18.00293 0l0 -33.984375z" fill-rule="nonzero"/><path fill="#000000" d="m62.782562 151.23486l0 16.4375l3.03125 0q1.09375 0 1.546875 0.421875q0.46875 0.40625 0.46875 1.078125q0 0.671875 -0.46875 1.09375q-0.453125 0.40625 -1.546875 0.40625l-9.0625 0q-1.09375 0 -1.5625 -0.40625q-0.453125 -0.421875 -0.453125 -1.109375q0 -0.65625 0.453125 -1.0625q0.46875 -0.421875 1.5625 -0.421875l3.03125 0l0 -12.53125l-2.6875 0.703125q-0.640625 0.171875 -0.96875 0.171875q-0.5625 0 -0.984375 -0.453125q-0.421875 -0.453125 -0.421875 -1.109375q0 -0.59375 0.3125 -0.9375q0.3125 -0.34375 1.296875 -0.609375l6.453125 -1.671875z" fill-rule="nonzero"/><path fill="#000000" d="m80.78549 151.23486l0 16.4375l3.03125 0q1.09375 0 1.546875 0.421875q0.46875 0.40625 0.46875 1.078125q0 0.671875 -0.46875 1.09375q-0.453125 0.40625 -1.546875 0.40625l-9.0625 0q-1.09375 0 -1.5625 -0.40625q-0.453125 -0.421875 -0.453125 -1.109375q0 -0.65625 0.453125 -1.0625q0.46875 -0.421875 1.5625 -0.421875l3.03125 0l0 -12.53125l-2.6875 0.703125q-0.640625 0.171875 -0.96875 0.171875q-0.5625 0 -0.984375 -0.453125q-0.421875 -0.453125 -0.421875 -1.109375q0 -0.59375 0.3125 -0.9375q0.3125 -0.34375 1.296875 -0.609375l6.453125 -1.671875zm23.03418 8.296875l0 3.28125q0 2.9375 -1.703125 5.625q-1.6875 2.671875 -4.828125 2.671875q-1.828125 0 -3.078125 -0.796875q-1.25 -0.796875 -2.375 -2.9375q-1.109375 -2.15625 -1.109375 -4.5625l0 -3.28125q0 -2.921875 1.671875 -5.609375q1.6875 -2.6875 4.84375 -2.6875q1.796875 0 3.046875 0.796875q1.25 0.78125 2.390625 2.9375q1.140625 2.140625 1.140625 4.5625zm-3.015625 0q0 -2.453125 -1.375 -4.28125q-0.765625 -1.015625 -2.171875 -1.015625q-1.375 0 -2.234375 1.109375q-1.296875 1.6875 -1.296875 4.1875l0 3.28125q0 2.46875 1.375 4.28125q0.765625 1.015625 2.1875 1.015625q1.34375 0 2.203125 -1.109375q1.3125 -1.6875 1.3125 -4.1875l0 -3.28125zm21.018555 0l0 3.28125q0 2.9375 -1.703125 5.625q-1.6875 2.671875 -4.828125 2.671875q-1.828125 0 -3.078125 -0.796875q-1.25 -0.796875 -2.375 -2.9375q-1.109375 -2.15625 -1.109375 -4.5625l0 -3.28125q0 -2.921875 1.671875 -5.609375q1.6875 -2.6875 4.84375 -2.6875q1.796875 0 3.046875 0.796875q1.25 0.78125 2.390625 2.9375q1.140625 2.140625 1.140625 4.5625zm-3.015625 0q0 -2.453125 -1.375 -4.28125q-0.765625 -1.015625 -2.171875 -1.015625q-1.375 0 -2.234375 1.109375q-1.296875 1.6875 -1.296875 4.1875l0 3.28125q0 2.46875 1.375 4.28125q0.765625 1.015625 2.1875 1.015625q1.34375 0 2.203125 -1.109375q1.3125 -1.6875 1.3125 -4.1875l0 -3.28125zm21.018555 0l0 3.28125q0 2.9375 -1.703125 5.625q-1.6875 2.671875 -4.828125 2.671875q-1.828125 0 -3.078125 -0.796875q-1.25 -0.796875 -2.375 -2.9375q-1.109375 -2.15625 -1.109375 -4.5625l0 -3.28125q0 -2.921875 1.671875 -5.609375q1.6875 -2.6875 4.84375 -2.6875q1.796875 0 3.046875 0.796875q1.25 0.78125 2.390625 2.9375q1.140625 2.140625 1.140625 4.5625zm-3.015625 0q0 -2.453125 -1.375 -4.28125q-0.765625 -1.015625 -2.171875 -1.015625q-1.375 0 -2.234375 1.109375q-1.296875 1.6875 -1.296875 4.1875l0 3.28125q0 2.46875 1.375 4.28125q0.765625 1.015625 2.1875 1.015625q1.34375 0 2.203125 -1.109375q1.3125 -1.6875 1.3125 -4.1875l0 -3.28125zm15.987305 -8.296875l0 16.4375l3.03125 0q1.09375 0 1.546875 0.421875q0.46875 0.40625 0.46875 1.078125q0 0.671875 -0.46875 1.09375q-0.453125 0.40625 -1.546875 0.40625l-9.0625 0q-1.09375 0 -1.5625 -0.40625q-0.453125 -0.421875 -0.453125 -1.109375q0 -0.65625 0.453125 -1.0625q0.46875 -0.421875 1.5625 -0.421875l3.03125 0l0 -12.53125l-2.6875 0.703125q-0.640625 0.171875 -0.96875 0.171875q-0.5625 0 -0.984375 -0.453125q-0.421875 -0.453125 -0.421875 -1.109375q0 -0.59375 0.3125 -0.9375q0.3125 -0.34375 1.296875 -0.609375l6.453125 -1.671875zm18.00293 0l0 16.4375l3.03125 0q1.09375 0 1.546875 0.421875q0.46875 0.40625 0.46875 1.078125q0 0.671875 -0.46875 1.09375q-0.453125 0.40625 -1.546875 0.40625l-9.0625 0q-1.09375 0 -1.5625 -0.40625q-0.453125 -0.421875 -0.453125 -1.109375q0 -0.65625 0.453125 -1.0625q0.46875 -0.421875 1.5625 -0.421875l3.03125 0l0 -12.53125l-2.6875 0.703125q-0.640625 0.171875 -0.96875 0.171875q-0.5625 0 -0.984375 -0.453125q-0.421875 -0.453125 -0.421875 -1.109375q0 -0.59375 0.3125 -0.9375q0.3125 -0.34375 1.296875 -0.609375l6.453125 -1.671875zm23.03418 8.296875l0 3.28125q0 2.9375 -1.703125 5.625q-1.6875 2.671875 -4.828125 2.671875q-1.828125 0 -3.078125 -0.796875q-1.25 -0.796875 -2.375 -2.9375q-1.109375 -2.15625 -1.109375 -4.5625l0 -3.28125q0 -2.921875 1.671875 -5.609375q1.6875 -2.6875 4.84375 -2.6875q1.796875 0 3.046875 0.796875q1.25 0.78125 2.390625 2.9375q1.140625 2.140625 1.140625 4.5625zm-3.015625 0q0 -2.453125 -1.375 -4.28125q-0.765625 -1.015625 -2.171875 -1.015625q-1.375 0 -2.234375 1.109375q-1.296875 1.6875 -1.296875 4.1875l0 3.28125q0 2.46875 1.375 4.28125q0.765625 1.015625 2.1875 1.015625q1.34375 0 2.203125 -1.109375q1.3125 -1.6875 1.3125 -4.1875l0 -3.28125z" fill-rule="nonzero"/><path fill="#000000" d="m52.251312 172.62236l18.00293 0l0 2.699997l-18.00293 0l0 -2.699997z" fill-rule="nonzero"/><path fill="#000000" fill-opacity="0.0" d="m52.251312 199.69678l18.00293 0l0 33.984375l-18.00293 0l0 -33.984375z" fill-rule="nonzero"/><path fill="#000000" d="m67.81381 213.53174l0 3.28125q0 2.9375 -1.703125 5.625q-1.6875 2.671875 -4.828125 2.671875q-1.828125 0 -3.078125 -0.796875q-1.25 -0.796875 -2.375 -2.9375q-1.109375 -2.15625 -1.109375 -4.5625l0 -3.28125q0 -2.921875 1.671875 -5.609375q1.6875 -2.6875 4.84375 -2.6875q1.796875 0 3.046875 0.796875q1.25 0.78125 2.390625 2.9375q1.140625 2.140625 1.140625 4.5625zm-3.015625 0q0 -2.453125 -1.375 -4.28125q-0.765625 -1.015625 -2.171875 -1.015625q-1.375 0 -2.234375 1.109375q-1.296875 1.6875 -1.296875 4.1875l0 3.28125q0 2.46875 1.375 4.28125q0.765625 1.015625 2.1875 1.015625q1.34375 0 2.203125 -1.109375q1.3125 -1.6875 1.3125 -4.1875l0 -3.28125z" fill-rule="nonzero"/><path fill="#000000" d="m80.78549 205.23486l0 16.4375l3.03125 0q1.09375 0 1.546875 0.421875q0.46875 0.40625 0.46875 1.078125q0 0.671875 -0.46875 1.09375q-0.453125 0.40625 -1.546875 0.40625l-9.0625 0q-1.09375 0 -1.5625 -0.40625q-0.453125 -0.421875 -0.453125 -1.109375q0 -0.65625 0.453125 -1.0625q0.46875 -0.421875 1.5625 -0.421875l3.03125 0l0 -12.53125l-2.6875 0.703125q-0.640625 0.171875 -0.96875 0.171875q-0.5625 0 -0.984375 -0.453125q-0.421875 -0.453125 -0.421875 -1.109375q0 -0.59375 0.3125 -0.9375q0.3125 -0.34375 1.296875 -0.609375l6.453125 -1.671875zm23.03418 8.296875l0 3.28125q0 2.9375 -1.703125 5.625q-1.6875 2.671875 -4.828125 2.671875q-1.828125 0 -3.078125 -0.796875q-1.25 -0.796875 -2.375 -2.9375q-1.109375 -2.15625 -1.109375 -4.5625l0 -3.28125q0 -2.921875 1.671875 -5.609375q1.6875 -2.6875 4.84375 -2.6875q1.796875 0 3.046875 0.796875q1.25 0.78125 2.390625 2.9375q1.140625 2.140625 1.140625 4.5625zm-3.015625 0q0 -2.453125 -1.375 -4.28125q-0.765625 -1.015625 -2.171875 -1.015625q-1.375 0 -2.234375 1.109375q-1.296875 1.6875 -1.296875 4.1875l0 3.28125q0 2.46875 1.375 4.28125q0.765625 1.015625 2.1875 1.015625q1.34375 0 2.203125 -1.109375q1.3125 -1.6875 1.3125 -4.1875l0 -3.28125zm21.018555 0l0 3.28125q0 2.9375 -1.703125 5.625q-1.6875 2.671875 -4.828125 2.671875q-1.828125 0 -3.078125 -0.796875q-1.25 -0.796875 -2.375 -2.9375q-1.109375 -2.15625 -1.109375 -4.5625l0 -3.28125q0 -2.921875 1.671875 -5.609375q1.6875 -2.6875 4.84375 -2.6875q1.796875 0 3.046875 0.796875q1.25 0.78125 2.390625 2.9375q1.140625 2.140625 1.140625 4.5625zm-3.015625 0q0 -2.453125 -1.375 -4.28125q-0.765625 -1.015625 -2.171875 -1.015625q-1.375 0 -2.234375 1.109375q-1.296875 1.6875 -1.296875 4.1875l0 3.28125q0 2.46875 1.375 4.28125q0.765625 1.015625 2.1875 1.015625q1.34375 0 2.203125 -1.109375q1.3125 -1.6875 1.3125 -4.1875l0 -3.28125zm15.987305 -8.296875l0 16.4375l3.03125 0q1.09375 0 1.546875 0.421875q0.46875 0.40625 0.46875 1.078125q0 0.671875 -0.46875 1.09375q-0.453125 0.40625 -1.546875 0.40625l-9.0625 0q-1.09375 0 -1.5625 -0.40625q-0.453125 -0.421875 -0.453125 -1.109375q0 -0.65625 0.453125 -1.0625q0.46875 -0.421875 1.5625 -0.421875l3.03125 0l0 -12.53125l-2.6875 0.703125q-0.640625 0.171875 -0.96875 0.171875q-0.5625 0 -0.984375 -0.453125q-0.421875 -0.453125 -0.421875 -1.109375q0 -0.59375 0.3125 -0.9375q0.3125 -0.34375 1.296875 -0.609375l6.453125 -1.671875zm18.00293 0l0 16.4375l3.03125 0q1.09375 0 1.546875 0.421875q0.46875 0.40625 0.46875 1.078125q0 0.671875 -0.46875 1.09375q-0.453125 0.40625 -1.546875 0.40625l-9.0625 0q-1.09375 0 -1.5625 -0.40625q-0.453125 -0.421875 -0.453125 -1.109375q0 -0.65625 0.453125 -1.0625q0.46875 -0.421875 1.5625 -0.421875l3.03125 0l0 -12.53125l-2.6875 0.703125q-0.640625 0.171875 -0.96875 0.171875q-0.5625 0 -0.984375 -0.453125q-0.421875 -0.453125 -0.421875 -1.109375q0 -0.59375 0.3125 -0.9375q0.3125 -0.34375 1.296875 -0.609375l6.453125 -1.671875zm23.03418 8.296875l0 3.28125q0 2.9375 -1.703125 5.625q-1.6875 2.671875 -4.828125 2.671875q-1.828125 0 -3.078125 -0.796875q-1.25 -0.796875 -2.375 -2.9375q-1.109375 -2.15625 -1.109375 -4.5625l0 -3.28125q0 -2.921875 1.671875 -5.609375q1.6875 -2.6875 4.84375 -2.6875q1.796875 0 3.046875 0.796875q1.25 0.78125 2.390625 2.9375q1.140625 2.140625 1.140625 4.5625zm-3.015625 0q0 -2.453125 -1.375 -4.28125q-0.765625 -1.015625 -2.171875 -1.015625q-1.375 0 -2.234375 1.109375q-1.296875 1.6875 -1.296875 4.1875l0 3.28125q0 2.46875 1.375 4.28125q0.765625 1.015625 2.1875 1.015625q1.34375 0 2.203125 -1.109375q1.3125 -1.6875 1.3125 -4.1875l0 -3.28125zm15.987305 -8.296875l0 16.4375l3.03125 0q1.09375 0 1.546875 0.421875q0.46875 0.40625 0.46875 1.078125q0 0.671875 -0.46875 1.09375q-0.453125 0.40625 -1.546875 0.40625l-9.0625 0q-1.09375 0 -1.5625 -0.40625q-0.453125 -0.421875 -0.453125 -1.109375q0 -0.65625 0.453125 -1.0625q0.46875 -0.421875 1.5625 -0.421875l3.03125 0l0 -12.53125l-2.6875 0.703125q-0.640625 0.171875 -0.96875 0.171875q-0.5625 0 -0.984375 -0.453125q-0.421875 -0.453125 -0.421875 -1.109375q0 -0.59375 0.3125 -0.9375q0.3125 -0.34375 1.296875 -0.609375l6.453125 -1.671875z" fill-rule="nonzero"/><path fill="#000000" d="m52.251312 226.62236l18.00293 0l0 2.699997l-18.00293 0l0 -2.699997z" fill-rule="nonzero"/><path fill="#000000" fill-opacity="0.0" d="m52.251312 253.69678l18.00293 0l0 33.984375l-18.00293 0l0 -33.984375z" fill-rule="nonzero"/><path fill="#000000" d="m67.81381 267.53174l0 3.28125q0 2.9375 -1.703125 5.625q-1.6875 2.671875 -4.828125 2.671875q-1.828125 0 -3.078125 -0.796875q-1.25 -0.796875 -2.375 -2.9375q-1.109375 -2.15625 -1.109375 -4.5625l0 -3.28125q0 -2.921875 1.671875 -5.609375q1.6875 -2.6875 4.84375 -2.6875q1.796875 0 3.046875 0.796875q1.25 0.78125 2.390625 2.9375q1.140625 2.140625 1.140625 4.5625zm-3.015625 0q0 -2.453125 -1.375 -4.28125q-0.765625 -1.015625 -2.171875 -1.015625q-1.375 0 -2.234375 1.109375q-1.296875 1.6875 -1.296875 4.1875l0 3.28125q0 2.46875 1.375 4.28125q0.765625 1.015625 2.1875 1.015625q1.34375 0 2.203125 -1.109375q1.3125 -1.6875 1.3125 -4.1875l0 -3.28125z" fill-rule="nonzero"/><path fill="#000000" d="m85.81674 267.53174l0 3.28125q0 2.9375 -1.703125 5.625q-1.6875 2.671875 -4.828125 2.671875q-1.828125 0 -3.078125 -0.796875q-1.25 -0.796875 -2.375 -2.9375q-1.109375 -2.15625 -1.109375 -4.5625l0 -3.28125q0 -2.921875 1.671875 -5.609375q1.6875 -2.6875 4.84375 -2.6875q1.796875 0 3.046875 0.796875q1.25 0.78125 2.390625 2.9375q1.140625 2.140625 1.140625 4.5625zm-3.015625 0q0 -2.453125 -1.375 -4.28125q-0.765625 -1.015625 -2.171875 -1.015625q-1.375 0 -2.234375 1.109375q-1.296875 1.6875 -1.296875 4.1875l0 3.28125q0 2.46875 1.375 4.28125q0.765625 1.015625 2.1875 1.015625q1.34375 0 2.203125 -1.109375q1.3125 -1.6875 1.3125 -4.1875l0 -3.28125zm15.987305 -8.296875l0 16.4375l3.03125 0q1.09375 0 1.546875 0.421875q0.46875 0.40625 0.46875 1.078125q0 0.671875 -0.46875 1.09375q-0.453125 0.40625 -1.546875 0.40625l-9.0625 0q-1.09375 0 -1.5625 -0.40625q-0.453125 -0.421875 -0.453125 -1.109375q0 -0.65625 0.453125 -1.0625q0.46875 -0.421875 1.5625 -0.421875l3.03125 0l0 -12.53125l-2.6875 0.703125q-0.640625 0.171875 -0.96875 0.171875q-0.5625 0 -0.984375 -0.453125q-0.421875 -0.453125 -0.421875 -1.109375q0 -0.59375 0.3125 -0.9375q0.3125 -0.34375 1.296875 -0.609375l6.453125 -1.671875zm18.00293 0l0 16.4375l3.03125 0q1.09375 0 1.546875 0.421875q0.46875 0.40625 0.46875 1.078125q0 0.671875 -0.46875 1.09375q-0.453125 0.40625 -1.546875 0.40625l-9.0625 0q-1.09375 0 -1.5625 -0.40625q-0.453125 -0.421875 -0.453125 -1.109375q0 -0.65625 0.453125 -1.0625q0.46875 -0.421875 1.5625 -0.421875l3.03125 0l0 -12.53125l-2.6875 0.703125q-0.640625 0.171875 -0.96875 0.171875q-0.5625 0 -0.984375 -0.453125q-0.421875 -0.453125 -0.421875 -1.109375q0 -0.59375 0.3125 -0.9375q0.3125 -0.34375 1.296875 -0.609375l6.453125 -1.671875zm18.00293 0l0 16.4375l3.03125 0q1.09375 0 1.546875 0.421875q0.46875 0.40625 0.46875 1.078125q0 0.671875 -0.46875 1.09375q-0.453125 0.40625 -1.546875 0.40625l-9.0625 0q-1.09375 0 -1.5625 -0.40625q-0.453125 -0.421875 -0.453125 -1.109375q0 -0.65625 0.453125 -1.0625q0.46875 -0.421875 1.5625 -0.421875l3.03125 0l0 -12.53125l-2.6875 0.703125q-0.640625 0.171875 -0.96875 0.171875q-0.5625 0 -0.984375 -0.453125q-0.421875 -0.453125 -0.421875 -1.109375q0 -0.59375 0.3125 -0.9375q0.3125 -0.34375 1.296875 -0.609375l6.453125 -1.671875zm18.00293 0l0 16.4375l3.03125 0q1.09375 0 1.546875 0.421875q0.46875 0.40625 0.46875 1.078125q0 0.671875 -0.46875 1.09375q-0.453125 0.40625 -1.546875 0.40625l-9.0625 0q-1.09375 0 -1.5625 -0.40625q-0.453125 -0.421875 -0.453125 -1.109375q0 -0.65625 0.453125 -1.0625q0.46875 -0.421875 1.5625 -0.421875l3.03125 0l0 -12.53125l-2.6875 0.703125q-0.640625 0.171875 -0.96875 0.171875q-0.5625 0 -0.984375 -0.453125q-0.421875 -0.453125 -0.421875 -1.109375q0 -0.59375 0.3125 -0.9375q0.3125 -0.34375 1.296875 -0.609375l6.453125 -1.671875zm18.00293 0l0 16.4375l3.03125 0q1.09375 0 1.546875 0.421875q0.46875 0.40625 0.46875 1.078125q0 0.671875 -0.46875 1.09375q-0.453125 0.40625 -1.546875 0.40625l-9.0625 0q-1.09375 0 -1.5625 -0.40625q-0.453125 -0.421875 -0.453125 -1.109375q0 -0.65625 0.453125 -1.0625q0.46875 -0.421875 1.5625 -0.421875l3.03125 0l0 -12.53125l-2.6875 0.703125q-0.640625 0.171875 -0.96875 0.171875q-0.5625 0 -0.984375 -0.453125q-0.421875 -0.453125 -0.421875 -1.109375q0 -0.59375 0.3125 -0.9375q0.3125 -0.34375 1.296875 -0.609375l6.453125 -1.671875zm18.00293 0l0 16.4375l3.03125 0q1.09375 0 1.546875 0.421875q0.46875 0.40625 0.46875 1.078125q0 0.671875 -0.46875 1.09375q-0.453125 0.40625 -1.546875 0.40625l-9.0625 0q-1.09375 0 -1.5625 -0.40625q-0.453125 -0.421875 -0.453125 -1.109375q0 -0.65625 0.453125 -1.0625q0.46875 -0.421875 1.5625 -0.421875l3.03125 0l0 -12.53125l-2.6875 0.703125q-0.640625 0.171875 -0.96875 0.171875q-0.5625 0 -0.984375 -0.453125q-0.421875 -0.453125 -0.421875 -1.109375q0 -0.59375 0.3125 -0.9375q0.3125 -0.34375 1.296875 -0.609375l6.453125 -1.671875z" fill-rule="nonzero"/><path fill="#000000" d="m52.251312 280.62238l18.00293 0l0 2.6999817l-18.00293 0l0 -2.6999817z" fill-rule="nonzero"/><path fill="#000000" fill-opacity="0.0" d="m52.251312 307.69678l18.00293 0l0 33.984375l-18.00293 0l0 -33.984375z" fill-rule="nonzero"/><path fill="#000000" d="m62.782562 313.23486l0 16.4375l3.03125 0q1.09375 0 1.546875 0.421875q0.46875 0.40625 0.46875 1.078125q0 0.671875 -0.46875 1.09375q-0.453125 0.40625 -1.546875 0.40625l-9.0625 0q-1.09375 0 -1.5625 -0.40625q-0.453125 -0.421875 -0.453125 -1.109375q0 -0.65625 0.453125 -1.0625q0.46875 -0.421875 1.5625 -0.421875l3.03125 0l0 -12.53125l-2.6875 0.703125q-0.640625 0.171875 -0.96875 0.171875q-0.5625 0 -0.984375 -0.453125q-0.421875 -0.453125 -0.421875 -1.109375q0 -0.59375 0.3125 -0.9375q0.3125 -0.34375 1.296875 -0.609375l6.453125 -1.671875z" fill-rule="nonzero"/><path fill="#000000" d="m80.78549 313.23486l0 16.4375l3.03125 0q1.09375 0 1.546875 0.421875q0.46875 0.40625 0.46875 1.078125q0 0.671875 -0.46875 1.09375q-0.453125 0.40625 -1.546875 0.40625l-9.0625 0q-1.09375 0 -1.5625 -0.40625q-0.453125 -0.421875 -0.453125 -1.109375q0 -0.65625 0.453125 -1.0625q0.46875 -0.421875 1.5625 -0.421875l3.03125 0l0 -12.53125l-2.6875 0.703125q-0.640625 0.171875 -0.96875 0.171875q-0.5625 0 -0.984375 -0.453125q-0.421875 -0.453125 -0.421875 -1.109375q0 -0.59375 0.3125 -0.9375q0.3125 -0.34375 1.296875 -0.609375l6.453125 -1.671875zm18.00293 0l0 16.4375l3.03125 0q1.09375 0 1.546875 0.421875q0.46875 0.40625 0.46875 1.078125q0 0.671875 -0.46875 1.09375q-0.453125 0.40625 -1.546875 0.40625l-9.0625 0q-1.09375 0 -1.5625 -0.40625q-0.453125 -0.421875 -0.453125 -1.109375q0 -0.65625 0.453125 -1.0625q0.46875 -0.421875 1.5625 -0.421875l3.03125 0l0 -12.53125l-2.6875 0.703125q-0.640625 0.171875 -0.96875 0.171875q-0.5625 0 -0.984375 -0.453125q-0.421875 -0.453125 -0.421875 -1.109375q0 -0.59375 0.3125 -0.9375q0.3125 -0.34375 1.296875 -0.609375l6.453125 -1.671875zm23.03418 8.296875l0 3.28125q0 2.9375 -1.703125 5.625q-1.6875 2.671875 -4.828125 2.671875q-1.828125 0 -3.078125 -0.796875q-1.25 -0.796875 -2.375 -2.9375q-1.109375 -2.15625 -1.109375 -4.5625l0 -3.28125q0 -2.921875 1.671875 -5.609375q1.6875 -2.6875 4.84375 -2.6875q1.796875 0 3.046875 0.796875q1.25 0.78125 2.390625 2.9375q1.140625 2.140625 1.140625 4.5625zm-3.015625 0q0 -2.453125 -1.375 -4.28125q-0.765625 -1.015625 -2.171875 -1.015625q-1.375 0 -2.234375 1.109375q-1.296875 1.6875 -1.296875 4.1875l0 3.28125q0 2.46875 1.375 4.28125q0.765625 1.015625 2.1875 1.015625q1.34375 0 2.203125 -1.109375q1.3125 -1.6875 1.3125 -4.1875l0 -3.28125zm21.018555 0l0 3.28125q0 2.9375 -1.703125 5.625q-1.6875 2.671875 -4.828125 2.671875q-1.828125 0 -3.078125 -0.796875q-1.25 -0.796875 -2.375 -2.9375q-1.109375 -2.15625 -1.109375 -4.5625l0 -3.28125q0 -2.921875 1.671875 -5.609375q1.6875 -2.6875 4.84375 -2.6875q1.796875 0 3.046875 0.796875q1.25 0.78125 2.390625 2.9375q1.140625 2.140625 1.140625 4.5625zm-3.015625 0q0 -2.453125 -1.375 -4.28125q-0.765625 -1.015625 -2.171875 -1.015625q-1.375 0 -2.234375 1.109375q-1.296875 1.6875 -1.296875 4.1875l0 3.28125q0 2.46875 1.375 4.28125q0.765625 1.015625 2.1875 1.015625q1.34375 0 2.203125 -1.109375q1.3125 -1.6875 1.3125 -4.1875l0 -3.28125zm15.987305 -8.296875l0 16.4375l3.03125 0q1.09375 0 1.546875 0.421875q0.46875 0.40625 0.46875 1.078125q0 0.671875 -0.46875 1.09375q-0.453125 0.40625 -1.546875 0.40625l-9.0625 0q-1.09375 0 -1.5625 -0.40625q-0.453125 -0.421875 -0.453125 -1.109375q0 -0.65625 0.453125 -1.0625q0.46875 -0.421875 1.5625 -0.421875l3.03125 0l0 -12.53125l-2.6875 0.703125q-0.640625 0.171875 -0.96875 0.171875q-0.5625 0 -0.984375 -0.453125q-0.421875 -0.453125 -0.421875 -1.109375q0 -0.59375 0.3125 -0.9375q0.3125 -0.34375 1.296875 -0.609375l6.453125 -1.671875zm23.03418 8.296875l0 3.28125q0 2.9375 -1.703125 5.625q-1.6875 2.671875 -4.828125 2.671875q-1.828125 0 -3.078125 -0.796875q-1.25 -0.796875 -2.375 -2.9375q-1.109375 -2.15625 -1.109375 -4.5625l0 -3.28125q0 -2.921875 1.671875 -5.609375q1.6875 -2.6875 4.84375 -2.6875q1.796875 0 3.046875 0.796875q1.25 0.78125 2.390625 2.9375q1.140625 2.140625 1.140625 4.5625zm-3.015625 0q0 -2.453125 -1.375 -4.28125q-0.765625 -1.015625 -2.171875 -1.015625q-1.375 0 -2.234375 1.109375q-1.296875 1.6875 -1.296875 4.1875l0 3.28125q0 2.46875 1.375 4.28125q0.765625 1.015625 2.1875 1.015625q1.34375 0 2.203125 -1.109375q1.3125 -1.6875 1.3125 -4.1875l0 -3.28125zm15.987305 -8.296875l0 16.4375l3.03125 0q1.09375 0 1.546875 0.421875q0.46875 0.40625 0.46875 1.078125q0 0.671875 -0.46875 1.09375q-0.453125 0.40625 -1.546875 0.40625l-9.0625 0q-1.09375 0 -1.5625 -0.40625q-0.453125 -0.421875 -0.453125 -1.109375q0 -0.65625 0.453125 -1.0625q0.46875 -0.421875 1.5625 -0.421875l3.03125 0l0 -12.53125l-2.6875 0.703125q-0.640625 0.171875 -0.96875 0.171875q-0.5625 0 -0.984375 -0.453125q-0.421875 -0.453125 -0.421875 -1.109375q0 -0.59375 0.3125 -0.9375q0.3125 -0.34375 1.296875 -0.609375l6.453125 -1.671875z" fill-rule="nonzero"/><path fill="#000000" d="m52.251312 334.62238l18.00293 0l0 2.6999817l-18.00293 0l0 -2.6999817z" fill-rule="nonzero"/><path fill="#000000" fill-opacity="0.0" d="m52.251312 361.69675l18.00293 0l0 33.984375l-18.00293 0l0 -33.984375z" fill-rule="nonzero"/><path fill="#000000" d="m67.81381 375.5317l0 3.28125q0 2.9375 -1.703125 5.625q-1.6875 2.671875 -4.828125 2.671875q-1.828125 0 -3.078125 -0.796875q-1.25 -0.796875 -2.375 -2.9375q-1.109375 -2.15625 -1.109375 -4.5625l0 -3.28125q0 -2.921875 1.671875 -5.609375q1.6875 -2.6875 4.84375 -2.6875q1.796875 0 3.046875 0.796875q1.25 0.78125 2.390625 2.9375q1.140625 2.140625 1.140625 4.5625zm-3.015625 0q0 -2.453125 -1.375 -4.28125q-0.765625 -1.015625 -2.171875 -1.015625q-1.375 0 -2.234375 1.109375q-1.296875 1.6875 -1.296875 4.1875l0 3.28125q0 2.46875 1.375 4.28125q0.765625 1.015625 2.1875 1.015625q1.34375 0 2.203125 -1.109375q1.3125 -1.6875 1.3125 -4.1875l0 -3.28125z" fill-rule="nonzero"/><path fill="#000000" d="m85.81674 375.5317l0 3.28125q0 2.9375 -1.703125 5.625q-1.6875 2.671875 -4.828125 2.671875q-1.828125 0 -3.078125 -0.796875q-1.25 -0.796875 -2.375 -2.9375q-1.109375 -2.15625 -1.109375 -4.5625l0 -3.28125q0 -2.921875 1.671875 -5.609375q1.6875 -2.6875 4.84375 -2.6875q1.796875 0 3.046875 0.796875q1.25 0.78125 2.390625 2.9375q1.140625 2.140625 1.140625 4.5625zm-3.015625 0q0 -2.453125 -1.375 -4.28125q-0.765625 -1.015625 -2.171875 -1.015625q-1.375 0 -2.234375 1.109375q-1.296875 1.6875 -1.296875 4.1875l0 3.28125q0 2.46875 1.375 4.28125q0.765625 1.015625 2.1875 1.015625q1.34375 0 2.203125 -1.109375q1.3125 -1.6875 1.3125 -4.1875l0 -3.28125zm15.987305 -8.296875l0 16.4375l3.03125 0q1.09375 0 1.546875 0.421875q0.46875 0.40625 0.46875 1.078125q0 0.671875 -0.46875 1.09375q-0.453125 0.40625 -1.546875 0.40625l-9.0625 0q-1.09375 0 -1.5625 -0.40625q-0.453125 -0.421875 -0.453125 -1.109375q0 -0.65625 0.453125 -1.0625q0.46875 -0.421875 1.5625 -0.421875l3.03125 0l0 -12.53125l-2.6875 0.703125q-0.640625 0.171875 -0.96875 0.171875q-0.5625 0 -0.984375 -0.453125q-0.421875 -0.453125 -0.421875 -1.109375q0 -0.59375 0.3125 -0.9375q0.3125 -0.34375 1.296875 -0.609375l6.453125 -1.671875zm23.03418 8.296875l0 3.28125q0 2.9375 -1.703125 5.625q-1.6875 2.671875 -4.828125 2.671875q-1.828125 0 -3.078125 -0.796875q-1.25 -0.796875 -2.375 -2.9375q-1.109375 -2.15625 -1.109375 -4.5625l0 -3.28125q0 -2.921875 1.671875 -5.609375q1.6875 -2.6875 4.84375 -2.6875q1.796875 0 3.046875 0.796875q1.25 0.78125 2.390625 2.9375q1.140625 2.140625 1.140625 4.5625zm-3.015625 0q0 -2.453125 -1.375 -4.28125q-0.765625 -1.015625 -2.171875 -1.015625q-1.375 0 -2.234375 1.109375q-1.296875 1.6875 -1.296875 4.1875l0 3.28125q0 2.46875 1.375 4.28125q0.765625 1.015625 2.1875 1.015625q1.34375 0 2.203125 -1.109375q1.3125 -1.6875 1.3125 -4.1875l0 -3.28125zm15.987305 -8.296875l0 16.4375l3.03125 0q1.09375 0 1.546875 0.421875q0.46875 0.40625 0.46875 1.078125q0 0.671875 -0.46875 1.09375q-0.453125 0.40625 -1.546875 0.40625l-9.0625 0q-1.09375 0 -1.5625 -0.40625q-0.453125 -0.421875 -0.453125 -1.109375q0 -0.65625 0.453125 -1.0625q0.46875 -0.421875 1.5625 -0.421875l3.03125 0l0 -12.53125l-2.6875 0.703125q-0.640625 0.171875 -0.96875 0.171875q-0.5625 0 -0.984375 -0.453125q-0.421875 -0.453125 -0.421875 -1.109375q0 -0.59375 0.3125 -0.9375q0.3125 -0.34375 1.296875 -0.609375l6.453125 -1.671875zm23.03418 8.296875l0 3.28125q0 2.9375 -1.703125 5.625q-1.6875 2.671875 -4.828125 2.671875q-1.828125 0 -3.078125 -0.796875q-1.25 -0.796875 -2.375 -2.9375q-1.109375 -2.15625 -1.109375 -4.5625l0 -3.28125q0 -2.921875 1.671875 -5.609375q1.6875 -2.6875 4.84375 -2.6875q1.796875 0 3.046875 0.796875q1.25 0.78125 2.390625 2.9375q1.140625 2.140625 1.140625 4.5625zm-3.015625 0q0 -2.453125 -1.375 -4.28125q-0.765625 -1.015625 -2.171875 -1.015625q-1.375 0 -2.234375 1.109375q-1.296875 1.6875 -1.296875 4.1875l0 3.28125q0 2.46875 1.375 4.28125q0.765625 1.015625 2.1875 1.015625q1.34375 0 2.203125 -1.109375q1.3125 -1.6875 1.3125 -4.1875l0 -3.28125zm15.987305 -8.296875l0 16.4375l3.03125 0q1.09375 0 1.546875 0.421875q0.46875 0.40625 0.46875 1.078125q0 0.671875 -0.46875 1.09375q-0.453125 0.40625 -1.546875 0.40625l-9.0625 0q-1.09375 0 -1.5625 -0.40625q-0.453125 -0.421875 -0.453125 -1.109375q0 -0.65625 0.453125 -1.0625q0.46875 -0.421875 1.5625 -0.421875l3.03125 0l0 -12.53125l-2.6875 0.703125q-0.640625 0.171875 -0.96875 0.171875q-0.5625 0 -0.984375 -0.453125q-0.421875 -0.453125 -0.421875 -1.109375q0 -0.59375 0.3125 -0.9375q0.3125 -0.34375 1.296875 -0.609375l6.453125 -1.671875zm23.03418 8.296875l0 3.28125q0 2.9375 -1.703125 5.625q-1.6875 2.671875 -4.828125 2.671875q-1.828125 0 -3.078125 -0.796875q-1.25 -0.796875 -2.375 -2.9375q-1.109375 -2.15625 -1.109375 -4.5625l0 -3.28125q0 -2.921875 1.671875 -5.609375q1.6875 -2.6875 4.84375 -2.6875q1.796875 0 3.046875 0.796875q1.25 0.78125 2.390625 2.9375q1.140625 2.140625 1.140625 4.5625zm-3.015625 0q0 -2.453125 -1.375 -4.28125q-0.765625 -1.015625 -2.171875 -1.015625q-1.375 0 -2.234375 1.109375q-1.296875 1.6875 -1.296875 4.1875l0 3.28125q0 2.46875 1.375 4.28125q0.765625 1.015625 2.1875 1.015625q1.34375 0 2.203125 -1.109375q1.3125 -1.6875 1.3125 -4.1875l0 -3.28125z" fill-rule="nonzero"/><path fill="#000000" d="m52.251312 388.62234l18.00293 0l0 2.6999817l-18.00293 0l0 -2.6999817z" fill-rule="nonzero"/><path fill="#000000" fill-opacity="0.0" d="m52.251312 415.69672l18.00293 0l0 33.984375l-18.00293 0l0 -33.984375z" fill-rule="nonzero"/><path fill="#000000" d="m62.782562 421.2348l0 16.4375l3.03125 0q1.09375 0 1.546875 0.421875q0.46875 0.40625 0.46875 1.078125q0 0.671875 -0.46875 1.09375q-0.453125 0.40625 -1.546875 0.40625l-9.0625 0q-1.09375 0 -1.5625 -0.40625q-0.453125 -0.421875 -0.453125 -1.109375q0 -0.65625 0.453125 -1.0625q0.46875 -0.421875 1.5625 -0.421875l3.03125 0l0 -12.53125l-2.6875 0.703125q-0.640625 0.171875 -0.96875 0.171875q-0.5625 0 -0.984375 -0.453125q-0.421875 -0.453125 -0.421875 -1.109375q0 -0.59375 0.3125 -0.9375q0.3125 -0.34375 1.296875 -0.609375l6.453125 -1.671875z" fill-rule="nonzero"/><path fill="#000000" d="m80.78549 421.2348l0 16.4375l3.03125 0q1.09375 0 1.546875 0.421875q0.46875 0.40625 0.46875 1.078125q0 0.671875 -0.46875 1.09375q-0.453125 0.40625 -1.546875 0.40625l-9.0625 0q-1.09375 0 -1.5625 -0.40625q-0.453125 -0.421875 -0.453125 -1.109375q0 -0.65625 0.453125 -1.0625q0.46875 -0.421875 1.5625 -0.421875l3.03125 0l0 -12.53125l-2.6875 0.703125q-0.640625 0.171875 -0.96875 0.171875q-0.5625 0 -0.984375 -0.453125q-0.421875 -0.453125 -0.421875 -1.109375q0 -0.59375 0.3125 -0.9375q0.3125 -0.34375 1.296875 -0.609375l6.453125 -1.671875zm23.03418 8.296875l0 3.28125q0 2.9375 -1.703125 5.625q-1.6875 2.671875 -4.828125 2.671875q-1.828125 0 -3.078125 -0.796875q-1.25 -0.796875 -2.375 -2.9375q-1.109375 -2.15625 -1.109375 -4.5625l0 -3.28125q0 -2.921875 1.671875 -5.609375q1.6875 -2.6875 4.84375 -2.6875q1.796875 0 3.046875 0.796875q1.25 0.78125 2.390625 2.9375q1.140625 2.140625 1.140625 4.5625zm-3.015625 0q0 -2.453125 -1.375 -4.28125q-0.765625 -1.015625 -2.171875 -1.015625q-1.375 0 -2.234375 1.109375q-1.296875 1.6875 -1.296875 4.1875l0 3.28125q0 2.46875 1.375 4.28125q0.765625 1.015625 2.1875 1.015625q1.34375 0 2.203125 -1.109375q1.3125 -1.6875 1.3125 -4.1875l0 -3.28125zm21.018555 0l0 3.28125q0 2.9375 -1.703125 5.625q-1.6875 2.671875 -4.828125 2.671875q-1.828125 0 -3.078125 -0.796875q-1.25 -0.796875 -2.375 -2.9375q-1.109375 -2.15625 -1.109375 -4.5625l0 -3.28125q0 -2.921875 1.671875 -5.609375q1.6875 -2.6875 4.84375 -2.6875q1.796875 0 3.046875 0.796875q1.25 0.78125 2.390625 2.9375q1.140625 2.140625 1.140625 4.5625zm-3.015625 0q0 -2.453125 -1.375 -4.28125q-0.765625 -1.015625 -2.171875 -1.015625q-1.375 0 -2.234375 1.109375q-1.296875 1.6875 -1.296875 4.1875l0 3.28125q0 2.46875 1.375 4.28125q0.765625 1.015625 2.1875 1.015625q1.34375 0 2.203125 -1.109375q1.3125 -1.6875 1.3125 -4.1875l0 -3.28125zm21.018555 0l0 3.28125q0 2.9375 -1.703125 5.625q-1.6875 2.671875 -4.828125 2.671875q-1.828125 0 -3.078125 -0.796875q-1.25 -0.796875 -2.375 -2.9375q-1.109375 -2.15625 -1.109375 -4.5625l0 -3.28125q0 -2.921875 1.671875 -5.609375q1.6875 -2.6875 4.84375 -2.6875q1.796875 0 3.046875 0.796875q1.25 0.78125 2.390625 2.9375q1.140625 2.140625 1.140625 4.5625zm-3.015625 0q0 -2.453125 -1.375 -4.28125q-0.765625 -1.015625 -2.171875 -1.015625q-1.375 0 -2.234375 1.109375q-1.296875 1.6875 -1.296875 4.1875l0 3.28125q0 2.46875 1.375 4.28125q0.765625 1.015625 2.1875 1.015625q1.34375 0 2.203125 -1.109375q1.3125 -1.6875 1.3125 -4.1875l0 -3.28125zm15.987305 -8.296875l0 16.4375l3.03125 0q1.09375 0 1.546875 0.421875q0.46875 0.40625 0.46875 1.078125q0 0.671875 -0.46875 1.09375q-0.453125 0.40625 -1.546875 0.40625l-9.0625 0q-1.09375 0 -1.5625 -0.40625q-0.453125 -0.421875 -0.453125 -1.109375q0 -0.65625 0.453125 -1.0625q0.46875 -0.421875 1.5625 -0.421875l3.03125 0l0 -12.53125l-2.6875 0.703125q-0.640625 0.171875 -0.96875 0.171875q-0.5625 0 -0.984375 -0.453125q-0.421875 -0.453125 -0.421875 -1.109375q0 -0.59375 0.3125 -0.9375q0.3125 -0.34375 1.296875 -0.609375l6.453125 -1.671875zm23.03418 8.296875l0 3.28125q0 2.9375 -1.703125 5.625q-1.6875 2.671875 -4.828125 2.671875q-1.828125 0 -3.078125 -0.796875q-1.25 -0.796875 -2.375 -2.9375q-1.109375 -2.15625 -1.109375 -4.5625l0 -3.28125q0 -2.921875 1.671875 -5.609375q1.6875 -2.6875 4.84375 -2.6875q1.796875 0 3.046875 0.796875q1.25 0.78125 2.390625 2.9375q1.140625 2.140625 1.140625 4.5625zm-3.015625 0q0 -2.453125 -1.375 -4.28125q-0.765625 -1.015625 -2.171875 -1.015625q-1.375 0 -2.234375 1.109375q-1.296875 1.6875 -1.296875 4.1875l0 3.28125q0 2.46875 1.375 4.28125q0.765625 1.015625 2.1875 1.015625q1.34375 0 2.203125 -1.109375q1.3125 -1.6875 1.3125 -4.1875l0 -3.28125zm21.018555 0l0 3.28125q0 2.9375 -1.703125 5.625q-1.6875 2.671875 -4.828125 2.671875q-1.828125 0 -3.078125 -0.796875q-1.25 -0.796875 -2.375 -2.9375q-1.109375 -2.15625 -1.109375 -4.5625l0 -3.28125q0 -2.921875 1.671875 -5.609375q1.6875 -2.6875 4.84375 -2.6875q1.796875 0 3.046875 0.796875q1.25 0.78125 2.390625 2.9375q1.140625 2.140625 1.140625 4.5625zm-3.015625 0q0 -2.453125 -1.375 -4.28125q-0.765625 -1.015625 -2.171875 -1.015625q-1.375 0 -2.234375 1.109375q-1.296875 1.6875 -1.296875 4.1875l0 3.28125q0 2.46875 1.375 4.28125q0.765625 1.015625 2.1875 1.015625q1.34375 0 2.203125 -1.109375q1.3125 -1.6875 1.3125 -4.1875l0 -3.28125z" fill-rule="nonzero"/><path fill="#000000" d="m52.251312 442.6223l18.00293 0l0 2.6999817l-18.00293 0l0 -2.6999817z" fill-rule="nonzero"/><path fill="#000000" fill-opacity="0.0" d="m265.02493 25.247375l169.48032 0l0 437.5433l-169.48032 0z" fill-rule="evenodd"/><path fill="#000000" d="m289.58743 51.90675l0 3.28125q0 2.9375 -1.703125 5.625q-1.6875 2.671875 -4.828125 2.671875q-1.828125 0 -3.078125 -0.796875q-1.25 -0.796875 -2.375 -2.9375q-1.109375 -2.15625 -1.109375 -4.5625l0 -3.28125q0 -2.921875 1.671875 -5.609375q1.6875 -2.6875 4.84375 -2.6875q1.796875 0 3.046875 0.796875q1.25 0.78125 2.390625 2.9375q1.140625 2.140625 1.140625 4.5625zm-3.015625 0q0 -2.453125 -1.375 -4.28125q-0.765625 -1.015625 -2.171875 -1.015625q-1.375 0 -2.234375 1.109375q-1.296875 1.6875 -1.296875 4.1875l0 3.28125q0 2.46875 1.375 4.28125q0.765625 1.015625 2.1875 1.015625q1.34375 0 2.203125 -1.109375q1.3125 -1.6875 1.3125 -4.1875l0 -3.28125z" fill-rule="nonzero"/><path fill="#010000" fill-opacity="0.0" d="m292.02786 38.07179l126.02051 0l0 33.98437l-126.02051 0l0 -33.98437z" fill-rule="nonzero"/><path fill="#000000" d="m302.5591 43.609875l0 16.4375l3.03125 0q1.09375 0 1.546875 0.421875q0.46875 0.40625 0.46875 1.078125q0 0.671875 -0.46875 1.09375q-0.453125 0.40625 -1.546875 0.40625l-9.0625 0q-1.09375 0 -1.5625 -0.40625q-0.453125 -0.421875 -0.453125 -1.109375q0 -0.65625 0.453125 -1.0625q0.46875 -0.421875 1.5625 -0.421875l3.03125 0l0 -12.53125l-2.6875 0.703125q-0.640625 0.171875 -0.96875 0.171875q-0.5625 0 -0.984375 -0.453125q-0.421875 -0.453125 -0.421875 -1.109375q0 -0.59375 0.3125 -0.9375q0.3125 -0.34375 1.296875 -0.609375l6.453125 -1.671875zm18.00293 0l0 16.4375l3.03125 0q1.09375 0 1.546875 0.421875q0.46875 0.40625 0.46875 1.078125q0 0.671875 -0.46875 1.09375q-0.453125 0.40625 -1.546875 0.40625l-9.0625 0q-1.09375 0 -1.5625 -0.40625q-0.453125 -0.421875 -0.453125 -1.109375q0 -0.65625 0.453125 -1.0625q0.46875 -0.421875 1.5625 -0.421875l3.03125 0l0 -12.53125l-2.6875 0.703125q-0.640625 0.171875 -0.96875 0.171875q-0.5625 0 -0.984375 -0.453125q-0.421875 -0.453125 -0.421875 -1.109375q0 -0.59375 0.3125 -0.9375q0.3125 -0.34375 1.296875 -0.609375l6.453125 -1.671875zm23.03418 8.296875l0 3.28125q0 2.9375 -1.703125 5.625q-1.6875 2.671875 -4.828125 2.671875q-1.828125 0 -3.078125 -0.796875q-1.25 -0.796875 -2.375 -2.9375q-1.109375 -2.15625 -1.109375 -4.5625l0 -3.28125q0 -2.921875 1.671875 -5.609375q1.6875 -2.6875 4.84375 -2.6875q1.796875 0 3.046875 0.796875q1.25 0.78125 2.390625 2.9375q1.140625 2.140625 1.140625 4.5625zm-3.015625 0q0 -2.453125 -1.375 -4.28125q-0.765625 -1.015625 -2.171875 -1.015625q-1.375 0 -2.234375 1.109375q-1.296875 1.6875 -1.296875 4.1875l0 3.28125q0 2.46875 1.375 4.28125q0.765625 1.015625 2.1875 1.015625q1.34375 0 2.203125 -1.109375q1.3125 -1.6875 1.3125 -4.1875l0 -3.28125zm21.018555 0l0 3.28125q0 2.9375 -1.703125 5.625q-1.6875 2.671875 -4.828125 2.671875q-1.828125 0 -3.078125 -0.796875q-1.25 -0.796875 -2.375 -2.9375q-1.109375 -2.15625 -1.109375 -4.5625l0 -3.28125q0 -2.921875 1.671875 -5.609375q1.6875 -2.6875 4.84375 -2.6875q1.796875 0 3.046875 0.796875q1.25 0.78125 2.390625 2.9375q1.140625 2.140625 1.140625 4.5625zm-3.015625 0q0 -2.453125 -1.375 -4.28125q-0.765625 -1.015625 -2.171875 -1.015625q-1.375 0 -2.234375 1.109375q-1.296875 1.6875 -1.296875 4.1875l0 3.28125q0 2.46875 1.375 4.28125q0.765625 1.015625 2.1875 1.015625q1.34375 0 2.203125 -1.109375q1.3125 -1.6875 1.3125 -4.1875l0 -3.28125zm15.987305 -8.296875l0 16.4375l3.03125 0q1.09375 0 1.546875 0.421875q0.46875 0.40625 0.46875 1.078125q0 0.671875 -0.46875 1.09375q-0.453125 0.40625 -1.546875 0.40625l-9.0625 0q-1.09375 0 -1.5625 -0.40625q-0.453125 -0.421875 -0.453125 -1.109375q0 -0.65625 0.453125 -1.0625q0.46875 -0.421875 1.5625 -0.421875l3.03125 0l0 -12.53125l-2.6875 0.703125q-0.640625 0.171875 -0.96875 0.171875q-0.5625 0 -0.984375 -0.453125q-0.421875 -0.453125 -0.421875 -1.109375q0 -0.59375 0.3125 -0.9375q0.3125 -0.34375 1.296875 -0.609375l6.453125 -1.671875zm23.03418 8.296875l0 3.28125q0 2.9375 -1.703125 5.625q-1.6875 2.671875 -4.828125 2.671875q-1.828125 0 -3.078125 -0.796875q-1.25 -0.796875 -2.375 -2.9375q-1.109375 -2.15625 -1.109375 -4.5625l0 -3.28125q0 -2.921875 1.671875 -5.609375q1.6875 -2.6875 4.84375 -2.6875q1.796875 0 3.046875 0.796875q1.25 0.78125 2.390625 2.9375q1.140625 2.140625 1.140625 4.5625zm-3.015625 0q0 -2.453125 -1.375 -4.28125q-0.765625 -1.015625 -2.171875 -1.015625q-1.375 0 -2.234375 1.109375q-1.296875 1.6875 -1.296875 4.1875l0 3.28125q0 2.46875 1.375 4.28125q0.765625 1.015625 2.1875 1.015625q1.34375 0 2.203125 -1.109375q1.3125 -1.6875 1.3125 -4.1875l0 -3.28125zm15.987305 -8.296875l0 16.4375l3.03125 0q1.09375 0 1.546875 0.421875q0.46875 0.40625 0.46875 1.078125q0 0.671875 -0.46875 1.09375q-0.453125 0.40625 -1.546875 0.40625l-9.0625 0q-1.09375 0 -1.5625 -0.40625q-0.453125 -0.421875 -0.453125 -1.109375q0 -0.65625 0.453125 -1.0625q0.46875 -0.421875 1.5625 -0.421875l3.03125 0l0 -12.53125l-2.6875 0.703125q-0.640625 0.171875 -0.96875 0.171875q-0.5625 0 -0.984375 -0.453125q-0.421875 -0.453125 -0.421875 -1.109375q0 -0.59375 0.3125 -0.9375q0.3125 -0.34375 1.296875 -0.609375l6.453125 -1.671875z" fill-rule="nonzero"/><path fill="#010000" fill-opacity="0.0" d="m418.04837 38.07179l0 0l0 33.98437l0 0l0 -33.98437z" fill-rule="nonzero"/><path fill="#000000" d="m292.02786 64.997375l126.02051 0l0 2.699997l-126.02051 0l0 -2.699997z" fill-rule="nonzero"/><path fill="#000000" d="m289.58743 105.90674l0 3.28125q0 2.9375 -1.703125 5.625q-1.6875 2.671875 -4.828125 2.671875q-1.828125 0 -3.078125 -0.796875q-1.25 -0.796875 -2.375 -2.9375q-1.109375 -2.15625 -1.109375 -4.5625l0 -3.28125q0 -2.921875 1.671875 -5.609375q1.6875 -2.6875 4.84375 -2.6875q1.796875 0 3.046875 0.796875q1.25 0.78125 2.390625 2.9375q1.140625 2.140625 1.140625 4.5625zm-3.015625 0q0 -2.453125 -1.375 -4.28125q-0.765625 -1.015625 -2.171875 -1.015625q-1.375 0 -2.234375 1.109375q-1.296875 1.6875 -1.296875 4.1875l0 3.28125q0 2.46875 1.375 4.28125q0.765625 1.015625 2.1875 1.015625q1.34375 0 2.203125 -1.109375q1.3125 -1.6875 1.3125 -4.1875l0 -3.28125zm21.018555 0l0 3.28125q0 2.9375 -1.703125 5.625q-1.6875 2.671875 -4.828125 2.671875q-1.828125 0 -3.078125 -0.796875q-1.25 -0.796875 -2.375 -2.9375q-1.109375 -2.15625 -1.109375 -4.5625l0 -3.28125q0 -2.921875 1.671875 -5.609375q1.6875 -2.6875 4.84375 -2.6875q1.796875 0 3.046875 0.796875q1.25 0.78125 2.390625 2.9375q1.140625 2.140625 1.140625 4.5625zm-3.015625 0q0 -2.453125 -1.375 -4.28125q-0.765625 -1.015625 -2.171875 -1.015625q-1.375 0 -2.234375 1.109375q-1.296875 1.6875 -1.296875 4.1875l0 3.28125q0 2.46875 1.375 4.28125q0.765625 1.015625 2.1875 1.015625q1.34375 0 2.203125 -1.109375q1.3125 -1.6875 1.3125 -4.1875l0 -3.28125zm15.987305 -8.296875l0 16.4375l3.03125 0q1.09375 0 1.546875 0.421875q0.46875 0.40625 0.46875 1.078125q0 0.671875 -0.46875 1.09375q-0.453125 0.40625 -1.546875 0.40625l-9.0625 0q-1.09375 0 -1.5625 -0.40625q-0.453125 -0.421875 -0.453125 -1.109375q0 -0.65625 0.453125 -1.0625q0.46875 -0.421875 1.5625 -0.421875l3.03125 0l0 -12.53125l-2.6875 0.703125q-0.640625 0.171875 -0.96875 0.171875q-0.5625 0 -0.984375 -0.453125q-0.421875 -0.453125 -0.421875 -1.109375q0 -0.59375 0.3125 -0.9375q0.3125 -0.34375 1.296875 -0.609375l6.453125 -1.671875zm23.03418 8.296875l0 3.28125q0 2.9375 -1.703125 5.625q-1.6875 2.671875 -4.828125 2.671875q-1.828125 0 -3.078125 -0.796875q-1.25 -0.796875 -2.375 -2.9375q-1.109375 -2.15625 -1.109375 -4.5625l0 -3.28125q0 -2.921875 1.671875 -5.609375q1.6875 -2.6875 4.84375 -2.6875q1.796875 0 3.046875 0.796875q1.25 0.78125 2.390625 2.9375q1.140625 2.140625 1.140625 4.5625zm-3.015625 0q0 -2.453125 -1.375 -4.28125q-0.765625 -1.015625 -2.171875 -1.015625q-1.375 0 -2.234375 1.109375q-1.296875 1.6875 -1.296875 4.1875l0 3.28125q0 2.46875 1.375 4.28125q0.765625 1.015625 2.1875 1.015625q1.34375 0 2.203125 -1.109375q1.3125 -1.6875 1.3125 -4.1875l0 -3.28125zm21.018555 0l0 3.28125q0 2.9375 -1.703125 5.625q-1.6875 2.671875 -4.828125 2.671875q-1.828125 0 -3.078125 -0.796875q-1.25 -0.796875 -2.375 -2.9375q-1.109375 -2.15625 -1.109375 -4.5625l0 -3.28125q0 -2.921875 1.671875 -5.609375q1.6875 -2.6875 4.84375 -2.6875q1.796875 0 3.046875 0.796875q1.25 0.78125 2.390625 2.9375q1.140625 2.140625 1.140625 4.5625zm-3.015625 0q0 -2.453125 -1.375 -4.28125q-0.765625 -1.015625 -2.171875 -1.015625q-1.375 0 -2.234375 1.109375q-1.296875 1.6875 -1.296875 4.1875l0 3.28125q0 2.46875 1.375 4.28125q0.765625 1.015625 2.1875 1.015625q1.34375 0 2.203125 -1.109375q1.3125 -1.6875 1.3125 -4.1875l0 -3.28125zm15.987305 -8.296875l0 16.4375l3.03125 0q1.09375 0 1.546875 0.421875q0.46875 0.40625 0.46875 1.078125q0 0.671875 -0.46875 1.09375q-0.453125 0.40625 -1.546875 0.40625l-9.0625 0q-1.09375 0 -1.5625 -0.40625q-0.453125 -0.421875 -0.453125 -1.109375q0 -0.65625 0.453125 -1.0625q0.46875 -0.421875 1.5625 -0.421875l3.03125 0l0 -12.53125l-2.6875 0.703125q-0.640625 0.171875 -0.96875 0.171875q-0.5625 0 -0.984375 -0.453125q-0.421875 -0.453125 -0.421875 -1.109375q0 -0.59375 0.3125 -0.9375q0.3125 -0.34375 1.296875 -0.609375l6.453125 -1.671875zm23.03418 8.296875l0 3.28125q0 2.9375 -1.703125 5.625q-1.6875 2.671875 -4.828125 2.671875q-1.828125 0 -3.078125 -0.796875q-1.25 -0.796875 -2.375 -2.9375q-1.109375 -2.15625 -1.109375 -4.5625l0 -3.28125q0 -2.921875 1.671875 -5.609375q1.6875 -2.6875 4.84375 -2.6875q1.796875 0 3.046875 0.796875q1.25 0.78125 2.390625 2.9375q1.140625 2.140625 1.140625 4.5625zm-3.015625 0q0 -2.453125 -1.375 -4.28125q-0.765625 -1.015625 -2.171875 -1.015625q-1.375 0 -2.234375 1.109375q-1.296875 1.6875 -1.296875 4.1875l0 3.28125q0 2.46875 1.375 4.28125q0.765625 1.015625 2.1875 1.015625q1.34375 0 2.203125 -1.109375q1.3125 -1.6875 1.3125 -4.1875l0 -3.28125zm21.018555 0l0 3.28125q0 2.9375 -1.703125 5.625q-1.6875 2.671875 -4.828125 2.671875q-1.828125 0 -3.078125 -0.796875q-1.25 -0.796875 -2.375 -2.9375q-1.109375 -2.15625 -1.109375 -4.5625l0 -3.28125q0 -2.921875 1.671875 -5.609375q1.6875 -2.6875 4.84375 -2.6875q1.796875 0 3.046875 0.796875q1.25 0.78125 2.390625 2.9375q1.140625 2.140625 1.140625 4.5625zm-3.015625 0q0 -2.453125 -1.375 -4.28125q-0.765625 -1.015625 -2.171875 -1.015625q-1.375 0 -2.234375 1.109375q-1.296875 1.6875 -1.296875 4.1875l0 3.28125q0 2.46875 1.375 4.28125q0.765625 1.015625 2.1875 1.015625q1.34375 0 2.203125 -1.109375q1.3125 -1.6875 1.3125 -4.1875l0 -3.28125z" fill-rule="nonzero"/><path fill="#000000" d="m289.58743 159.90674l0 3.28125q0 2.9375 -1.703125 5.625q-1.6875 2.671875 -4.828125 2.671875q-1.828125 0 -3.078125 -0.796875q-1.25 -0.796875 -2.375 -2.9375q-1.109375 -2.15625 -1.109375 -4.5625l0 -3.28125q0 -2.921875 1.671875 -5.609375q1.6875 -2.6875 4.84375 -2.6875q1.796875 0 3.046875 0.796875q1.25 0.78125 2.390625 2.9375q1.140625 2.140625 1.140625 4.5625zm-3.015625 0q0 -2.453125 -1.375 -4.28125q-0.765625 -1.015625 -2.171875 -1.015625q-1.375 0 -2.234375 1.109375q-1.296875 1.6875 -1.296875 4.1875l0 3.28125q0 2.46875 1.375 4.28125q0.765625 1.015625 2.1875 1.015625q1.34375 0 2.203125 -1.109375q1.3125 -1.6875 1.3125 -4.1875l0 -3.28125zm15.987305 -8.296875l0 16.4375l3.03125 0q1.09375 0 1.546875 0.421875q0.46875 0.40625 0.46875 1.078125q0 0.671875 -0.46875 1.09375q-0.453125 0.40625 -1.546875 0.40625l-9.0625 0q-1.09375 0 -1.5625 -0.40625q-0.453125 -0.421875 -0.453125 -1.109375q0 -0.65625 0.453125 -1.0625q0.46875 -0.421875 1.5625 -0.421875l3.03125 0l0 -12.53125l-2.6875 0.703125q-0.640625 0.171875 -0.96875 0.171875q-0.5625 0 -0.984375 -0.453125q-0.421875 -0.453125 -0.421875 -1.109375q0 -0.59375 0.3125 -0.9375q0.3125 -0.34375 1.296875 -0.609375l6.453125 -1.671875zm23.03418 8.296875l0 3.28125q0 2.9375 -1.703125 5.625q-1.6875 2.671875 -4.828125 2.671875q-1.828125 0 -3.078125 -0.796875q-1.25 -0.796875 -2.375 -2.9375q-1.109375 -2.15625 -1.109375 -4.5625l0 -3.28125q0 -2.921875 1.671875 -5.609375q1.6875 -2.6875 4.84375 -2.6875q1.796875 0 3.046875 0.796875q1.25 0.78125 2.390625 2.9375q1.140625 2.140625 1.140625 4.5625zm-3.015625 0q0 -2.453125 -1.375 -4.28125q-0.765625 -1.015625 -2.171875 -1.015625q-1.375 0 -2.234375 1.109375q-1.296875 1.6875 -1.296875 4.1875l0 3.28125q0 2.46875 1.375 4.28125q0.765625 1.015625 2.1875 1.015625q1.34375 0 2.203125 -1.109375q1.3125 -1.6875 1.3125 -4.1875l0 -3.28125zm21.018555 0l0 3.28125q0 2.9375 -1.703125 5.625q-1.6875 2.671875 -4.828125 2.671875q-1.828125 0 -3.078125 -0.796875q-1.25 -0.796875 -2.375 -2.9375q-1.109375 -2.15625 -1.109375 -4.5625l0 -3.28125q0 -2.921875 1.671875 -5.609375q1.6875 -2.6875 4.84375 -2.6875q1.796875 0 3.046875 0.796875q1.25 0.78125 2.390625 2.9375q1.140625 2.140625 1.140625 4.5625zm-3.015625 0q0 -2.453125 -1.375 -4.28125q-0.765625 -1.015625 -2.171875 -1.015625q-1.375 0 -2.234375 1.109375q-1.296875 1.6875 -1.296875 4.1875l0 3.28125q0 2.46875 1.375 4.28125q0.765625 1.015625 2.1875 1.015625q1.34375 0 2.203125 -1.109375q1.3125 -1.6875 1.3125 -4.1875l0 -3.28125zm21.018555 0l0 3.28125q0 2.9375 -1.703125 5.625q-1.6875 2.671875 -4.828125 2.671875q-1.828125 0 -3.078125 -0.796875q-1.25 -0.796875 -2.375 -2.9375q-1.109375 -2.15625 -1.109375 -4.5625l0 -3.28125q0 -2.921875 1.671875 -5.609375q1.6875 -2.6875 4.84375 -2.6875q1.796875 0 3.046875 0.796875q1.25 0.78125 2.390625 2.9375q1.140625 2.140625 1.140625 4.5625zm-3.015625 0q0 -2.453125 -1.375 -4.28125q-0.765625 -1.015625 -2.171875 -1.015625q-1.375 0 -2.234375 1.109375q-1.296875 1.6875 -1.296875 4.1875l0 3.28125q0 2.46875 1.375 4.28125q0.765625 1.015625 2.1875 1.015625q1.34375 0 2.203125 -1.109375q1.3125 -1.6875 1.3125 -4.1875l0 -3.28125zm15.987305 -8.296875l0 16.4375l3.03125 0q1.09375 0 1.546875 0.421875q0.46875 0.40625 0.46875 1.078125q0 0.671875 -0.46875 1.09375q-0.453125 0.40625 -1.546875 0.40625l-9.0625 0q-1.09375 0 -1.5625 -0.40625q-0.453125 -0.421875 -0.453125 -1.109375q0 -0.65625 0.453125 -1.0625q0.46875 -0.421875 1.5625 -0.421875l3.03125 0l0 -12.53125l-2.6875 0.703125q-0.640625 0.171875 -0.96875 0.171875q-0.5625 0 -0.984375 -0.453125q-0.421875 -0.453125 -0.421875 -1.109375q0 -0.59375 0.3125 -0.9375q0.3125 -0.34375 1.296875 -0.609375l6.453125 -1.671875zm18.00293 0l0 16.4375l3.03125 0q1.09375 0 1.546875 0.421875q0.46875 0.40625 0.46875 1.078125q0 0.671875 -0.46875 1.09375q-0.453125 0.40625 -1.546875 0.40625l-9.0625 0q-1.09375 0 -1.5625 -0.40625q-0.453125 -0.421875 -0.453125 -1.109375q0 -0.65625 0.453125 -1.0625q0.46875 -0.421875 1.5625 -0.421875l3.03125 0l0 -12.53125l-2.6875 0.703125q-0.640625 0.171875 -0.96875 0.171875q-0.5625 0 -0.984375 -0.453125q-0.421875 -0.453125 -0.421875 -1.109375q0 -0.59375 0.3125 -0.9375q0.3125 -0.34375 1.296875 -0.609375l6.453125 -1.671875zm23.03418 8.296875l0 3.28125q0 2.9375 -1.703125 5.625q-1.6875 2.671875 -4.828125 2.671875q-1.828125 0 -3.078125 -0.796875q-1.25 -0.796875 -2.375 -2.9375q-1.109375 -2.15625 -1.109375 -4.5625l0 -3.28125q0 -2.921875 1.671875 -5.609375q1.6875 -2.6875 4.84375 -2.6875q1.796875 0 3.046875 0.796875q1.25 0.78125 2.390625 2.9375q1.140625 2.140625 1.140625 4.5625zm-3.015625 0q0 -2.453125 -1.375 -4.28125q-0.765625 -1.015625 -2.171875 -1.015625q-1.375 0 -2.234375 1.109375q-1.296875 1.6875 -1.296875 4.1875l0 3.28125q0 2.46875 1.375 4.28125q0.765625 1.015625 2.1875 1.015625q1.34375 0 2.203125 -1.109375q1.3125 -1.6875 1.3125 -4.1875l0 -3.28125z" fill-rule="nonzero"/><path fill="#000000" d="m289.58743 213.90674l0 3.28125q0 2.9375 -1.703125 5.625q-1.6875 2.671875 -4.828125 2.671875q-1.828125 0 -3.078125 -0.796875q-1.25 -0.796875 -2.375 -2.9375q-1.109375 -2.15625 -1.109375 -4.5625l0 -3.28125q0 -2.921875 1.671875 -5.609375q1.6875 -2.6875 4.84375 -2.6875q1.796875 0 3.046875 0.796875q1.25 0.78125 2.390625 2.9375q1.140625 2.140625 1.140625 4.5625zm-3.015625 0q0 -2.453125 -1.375 -4.28125q-0.765625 -1.015625 -2.171875 -1.015625q-1.375 0 -2.234375 1.109375q-1.296875 1.6875 -1.296875 4.1875l0 3.28125q0 2.46875 1.375 4.28125q0.765625 1.015625 2.1875 1.015625q1.34375 0 2.203125 -1.109375q1.3125 -1.6875 1.3125 -4.1875l0 -3.28125zm15.987305 -8.296875l0 16.4375l3.03125 0q1.09375 0 1.546875 0.421875q0.46875 0.40625 0.46875 1.078125q0 0.671875 -0.46875 1.09375q-0.453125 0.40625 -1.546875 0.40625l-9.0625 0q-1.09375 0 -1.5625 -0.40625q-0.453125 -0.421875 -0.453125 -1.109375q0 -0.65625 0.453125 -1.0625q0.46875 -0.421875 1.5625 -0.421875l3.03125 0l0 -12.53125l-2.6875 0.703125q-0.640625 0.171875 -0.96875 0.171875q-0.5625 0 -0.984375 -0.453125q-0.421875 -0.453125 -0.421875 -1.109375q0 -0.59375 0.3125 -0.9375q0.3125 -0.34375 1.296875 -0.609375l6.453125 -1.671875zm23.03418 8.296875l0 3.28125q0 2.9375 -1.703125 5.625q-1.6875 2.671875 -4.828125 2.671875q-1.828125 0 -3.078125 -0.796875q-1.25 -0.796875 -2.375 -2.9375q-1.109375 -2.15625 -1.109375 -4.5625l0 -3.28125q0 -2.921875 1.671875 -5.609375q1.6875 -2.6875 4.84375 -2.6875q1.796875 0 3.046875 0.796875q1.25 0.78125 2.390625 2.9375q1.140625 2.140625 1.140625 4.5625zm-3.015625 0q0 -2.453125 -1.375 -4.28125q-0.765625 -1.015625 -2.171875 -1.015625q-1.375 0 -2.234375 1.109375q-1.296875 1.6875 -1.296875 4.1875l0 3.28125q0 2.46875 1.375 4.28125q0.765625 1.015625 2.1875 1.015625q1.34375 0 2.203125 -1.109375q1.3125 -1.6875 1.3125 -4.1875l0 -3.28125zm21.018555 0l0 3.28125q0 2.9375 -1.703125 5.625q-1.6875 2.671875 -4.828125 2.671875q-1.828125 0 -3.078125 -0.796875q-1.25 -0.796875 -2.375 -2.9375q-1.109375 -2.15625 -1.109375 -4.5625l0 -3.28125q0 -2.921875 1.671875 -5.609375q1.6875 -2.6875 4.84375 -2.6875q1.796875 0 3.046875 0.796875q1.25 0.78125 2.390625 2.9375q1.140625 2.140625 1.140625 4.5625zm-3.015625 0q0 -2.453125 -1.375 -4.28125q-0.765625 -1.015625 -2.171875 -1.015625q-1.375 0 -2.234375 1.109375q-1.296875 1.6875 -1.296875 4.1875l0 3.28125q0 2.46875 1.375 4.28125q0.765625 1.015625 2.1875 1.015625q1.34375 0 2.203125 -1.109375q1.3125 -1.6875 1.3125 -4.1875l0 -3.28125zm15.987305 -8.296875l0 16.4375l3.03125 0q1.09375 0 1.546875 0.421875q0.46875 0.40625 0.46875 1.078125q0 0.671875 -0.46875 1.09375q-0.453125 0.40625 -1.546875 0.40625l-9.0625 0q-1.09375 0 -1.5625 -0.40625q-0.453125 -0.421875 -0.453125 -1.109375q0 -0.65625 0.453125 -1.0625q0.46875 -0.421875 1.5625 -0.421875l3.03125 0l0 -12.53125l-2.6875 0.703125q-0.640625 0.171875 -0.96875 0.171875q-0.5625 0 -0.984375 -0.453125q-0.421875 -0.453125 -0.421875 -1.109375q0 -0.59375 0.3125 -0.9375q0.3125 -0.34375 1.296875 -0.609375l6.453125 -1.671875zm18.00293 0l0 16.4375l3.03125 0q1.09375 0 1.546875 0.421875q0.46875 0.40625 0.46875 1.078125q0 0.671875 -0.46875 1.09375q-0.453125 0.40625 -1.546875 0.40625l-9.0625 0q-1.09375 0 -1.5625 -0.40625q-0.453125 -0.421875 -0.453125 -1.109375q0 -0.65625 0.453125 -1.0625q0.46875 -0.421875 1.5625 -0.421875l3.03125 0l0 -12.53125l-2.6875 0.703125q-0.640625 0.171875 -0.96875 0.171875q-0.5625 0 -0.984375 -0.453125q-0.421875 -0.453125 -0.421875 -1.109375q0 -0.59375 0.3125 -0.9375q0.3125 -0.34375 1.296875 -0.609375l6.453125 -1.671875zm23.03418 8.296875l0 3.28125q0 2.9375 -1.703125 5.625q-1.6875 2.671875 -4.828125 2.671875q-1.828125 0 -3.078125 -0.796875q-1.25 -0.796875 -2.375 -2.9375q-1.109375 -2.15625 -1.109375 -4.5625l0 -3.28125q0 -2.921875 1.671875 -5.609375q1.6875 -2.6875 4.84375 -2.6875q1.796875 0 3.046875 0.796875q1.25 0.78125 2.390625 2.9375q1.140625 2.140625 1.140625 4.5625zm-3.015625 0q0 -2.453125 -1.375 -4.28125q-0.765625 -1.015625 -2.171875 -1.015625q-1.375 0 -2.234375 1.109375q-1.296875 1.6875 -1.296875 4.1875l0 3.28125q0 2.46875 1.375 4.28125q0.765625 1.015625 2.1875 1.015625q1.34375 0 2.203125 -1.109375q1.3125 -1.6875 1.3125 -4.1875l0 -3.28125zm15.987305 -8.296875l0 16.4375l3.03125 0q1.09375 0 1.546875 0.421875q0.46875 0.40625 0.46875 1.078125q0 0.671875 -0.46875 1.09375q-0.453125 0.40625 -1.546875 0.40625l-9.0625 0q-1.09375 0 -1.5625 -0.40625q-0.453125 -0.421875 -0.453125 -1.109375q0 -0.65625 0.453125 -1.0625q0.46875 -0.421875 1.5625 -0.421875l3.03125 0l0 -12.53125l-2.6875 0.703125q-0.640625 0.171875 -0.96875 0.171875q-0.5625 0 -0.984375 -0.453125q-0.421875 -0.453125 -0.421875 -1.109375q0 -0.59375 0.3125 -0.9375q0.3125 -0.34375 1.296875 -0.609375l6.453125 -1.671875z" fill-rule="nonzero"/><path fill="#000000" d="m289.58743 267.90674l0 3.28125q0 2.9375 -1.703125 5.625q-1.6875 2.671875 -4.828125 2.671875q-1.828125 0 -3.078125 -0.796875q-1.25 -0.796875 -2.375 -2.9375q-1.109375 -2.15625 -1.109375 -4.5625l0 -3.28125q0 -2.921875 1.671875 -5.609375q1.6875 -2.6875 4.84375 -2.6875q1.796875 0 3.046875 0.796875q1.25 0.78125 2.390625 2.9375q1.140625 2.140625 1.140625 4.5625zm-3.015625 0q0 -2.453125 -1.375 -4.28125q-0.765625 -1.015625 -2.171875 -1.015625q-1.375 0 -2.234375 1.109375q-1.296875 1.6875 -1.296875 4.1875l0 3.28125q0 2.46875 1.375 4.28125q0.765625 1.015625 2.1875 1.015625q1.34375 0 2.203125 -1.109375q1.3125 -1.6875 1.3125 -4.1875l0 -3.28125zm21.018555 0l0 3.28125q0 2.9375 -1.703125 5.625q-1.6875 2.671875 -4.828125 2.671875q-1.828125 0 -3.078125 -0.796875q-1.25 -0.796875 -2.375 -2.9375q-1.109375 -2.15625 -1.109375 -4.5625l0 -3.28125q0 -2.921875 1.671875 -5.609375q1.6875 -2.6875 4.84375 -2.6875q1.796875 0 3.046875 0.796875q1.25 0.78125 2.390625 2.9375q1.140625 2.140625 1.140625 4.5625zm-3.015625 0q0 -2.453125 -1.375 -4.28125q-0.765625 -1.015625 -2.171875 -1.015625q-1.375 0 -2.234375 1.109375q-1.296875 1.6875 -1.296875 4.1875l0 3.28125q0 2.46875 1.375 4.28125q0.765625 1.015625 2.1875 1.015625q1.34375 0 2.203125 -1.109375q1.3125 -1.6875 1.3125 -4.1875l0 -3.28125zm15.987305 -8.296875l0 16.4375l3.03125 0q1.09375 0 1.546875 0.421875q0.46875 0.40625 0.46875 1.078125q0 0.671875 -0.46875 1.09375q-0.453125 0.40625 -1.546875 0.40625l-9.0625 0q-1.09375 0 -1.5625 -0.40625q-0.453125 -0.421875 -0.453125 -1.109375q0 -0.65625 0.453125 -1.0625q0.46875 -0.421875 1.5625 -0.421875l3.03125 0l0 -12.53125l-2.6875 0.703125q-0.640625 0.171875 -0.96875 0.171875q-0.5625 0 -0.984375 -0.453125q-0.421875 -0.453125 -0.421875 -1.109375q0 -0.59375 0.3125 -0.9375q0.3125 -0.34375 1.296875 -0.609375l6.453125 -1.671875zm18.00293 0l0 16.4375l3.03125 0q1.09375 0 1.546875 0.421875q0.46875 0.40625 0.46875 1.078125q0 0.671875 -0.46875 1.09375q-0.453125 0.40625 -1.546875 0.40625l-9.0625 0q-1.09375 0 -1.5625 -0.40625q-0.453125 -0.421875 -0.453125 -1.109375q0 -0.65625 0.453125 -1.0625q0.46875 -0.421875 1.5625 -0.421875l3.03125 0l0 -12.53125l-2.6875 0.703125q-0.640625 0.171875 -0.96875 0.171875q-0.5625 0 -0.984375 -0.453125q-0.421875 -0.453125 -0.421875 -1.109375q0 -0.59375 0.3125 -0.9375q0.3125 -0.34375 1.296875 -0.609375l6.453125 -1.671875zm18.00293 0l0 16.4375l3.03125 0q1.09375 0 1.546875 0.421875q0.46875 0.40625 0.46875 1.078125q0 0.671875 -0.46875 1.09375q-0.453125 0.40625 -1.546875 0.40625l-9.0625 0q-1.09375 0 -1.5625 -0.40625q-0.453125 -0.421875 -0.453125 -1.109375q0 -0.65625 0.453125 -1.0625q0.46875 -0.421875 1.5625 -0.421875l3.03125 0l0 -12.53125l-2.6875 0.703125q-0.640625 0.171875 -0.96875 0.171875q-0.5625 0 -0.984375 -0.453125q-0.421875 -0.453125 -0.421875 -1.109375q0 -0.59375 0.3125 -0.9375q0.3125 -0.34375 1.296875 -0.609375l6.453125 -1.671875zm18.00293 0l0 16.4375l3.03125 0q1.09375 0 1.546875 0.421875q0.46875 0.40625 0.46875 1.078125q0 0.671875 -0.46875 1.09375q-0.453125 0.40625 -1.546875 0.40625l-9.0625 0q-1.09375 0 -1.5625 -0.40625q-0.453125 -0.421875 -0.453125 -1.109375q0 -0.65625 0.453125 -1.0625q0.46875 -0.421875 1.5625 -0.421875l3.03125 0l0 -12.53125l-2.6875 0.703125q-0.640625 0.171875 -0.96875 0.171875q-0.5625 0 -0.984375 -0.453125q-0.421875 -0.453125 -0.421875 -1.109375q0 -0.59375 0.3125 -0.9375q0.3125 -0.34375 1.296875 -0.609375l6.453125 -1.671875zm18.00293 0l0 16.4375l3.03125 0q1.09375 0 1.546875 0.421875q0.46875 0.40625 0.46875 1.078125q0 0.671875 -0.46875 1.09375q-0.453125 0.40625 -1.546875 0.40625l-9.0625 0q-1.09375 0 -1.5625 -0.40625q-0.453125 -0.421875 -0.453125 -1.109375q0 -0.65625 0.453125 -1.0625q0.46875 -0.421875 1.5625 -0.421875l3.03125 0l0 -12.53125l-2.6875 0.703125q-0.640625 0.171875 -0.96875 0.171875q-0.5625 0 -0.984375 -0.453125q-0.421875 -0.453125 -0.421875 -1.109375q0 -0.59375 0.3125 -0.9375q0.3125 -0.34375 1.296875 -0.609375l6.453125 -1.671875zm18.00293 0l0 16.4375l3.03125 0q1.09375 0 1.546875 0.421875q0.46875 0.40625 0.46875 1.078125q0 0.671875 -0.46875 1.09375q-0.453125 0.40625 -1.546875 0.40625l-9.0625 0q-1.09375 0 -1.5625 -0.40625q-0.453125 -0.421875 -0.453125 -1.109375q0 -0.65625 0.453125 -1.0625q0.46875 -0.421875 1.5625 -0.421875l3.03125 0l0 -12.53125l-2.6875 0.703125q-0.640625 0.171875 -0.96875 0.171875q-0.5625 0 -0.984375 -0.453125q-0.421875 -0.453125 -0.421875 -1.109375q0 -0.59375 0.3125 -0.9375q0.3125 -0.34375 1.296875 -0.609375l6.453125 -1.671875z" fill-rule="nonzero"/><path fill="#000000" d="m289.58743 321.9067l0 3.28125q0 2.9375 -1.703125 5.625q-1.6875 2.671875 -4.828125 2.671875q-1.828125 0 -3.078125 -0.796875q-1.25 -0.796875 -2.375 -2.9375q-1.109375 -2.15625 -1.109375 -4.5625l0 -3.28125q0 -2.921875 1.671875 -5.609375q1.6875 -2.6875 4.84375 -2.6875q1.796875 0 3.046875 0.796875q1.25 0.78125 2.390625 2.9375q1.140625 2.140625 1.140625 4.5625zm-3.015625 0q0 -2.453125 -1.375 -4.28125q-0.765625 -1.015625 -2.171875 -1.015625q-1.375 0 -2.234375 1.109375q-1.296875 1.6875 -1.296875 4.1875l0 3.28125q0 2.46875 1.375 4.28125q0.765625 1.015625 2.1875 1.015625q1.34375 0 2.203125 -1.109375q1.3125 -1.6875 1.3125 -4.1875l0 -3.28125zm15.987305 -8.296875l0 16.4375l3.03125 0q1.09375 0 1.546875 0.421875q0.46875 0.40625 0.46875 1.078125q0 0.671875 -0.46875 1.09375q-0.453125 0.40625 -1.546875 0.40625l-9.0625 0q-1.09375 0 -1.5625 -0.40625q-0.453125 -0.421875 -0.453125 -1.109375q0 -0.65625 0.453125 -1.0625q0.46875 -0.421875 1.5625 -0.421875l3.03125 0l0 -12.53125l-2.6875 0.703125q-0.640625 0.171875 -0.96875 0.171875q-0.5625 0 -0.984375 -0.453125q-0.421875 -0.453125 -0.421875 -1.109375q0 -0.59375 0.3125 -0.9375q0.3125 -0.34375 1.296875 -0.609375l6.453125 -1.671875zm18.00293 0l0 16.4375l3.03125 0q1.09375 0 1.546875 0.421875q0.46875 0.40625 0.46875 1.078125q0 0.671875 -0.46875 1.09375q-0.453125 0.40625 -1.546875 0.40625l-9.0625 0q-1.09375 0 -1.5625 -0.40625q-0.453125 -0.421875 -0.453125 -1.109375q0 -0.65625 0.453125 -1.0625q0.46875 -0.421875 1.5625 -0.421875l3.03125 0l0 -12.53125l-2.6875 0.703125q-0.640625 0.171875 -0.96875 0.171875q-0.5625 0 -0.984375 -0.453125q-0.421875 -0.453125 -0.421875 -1.109375q0 -0.59375 0.3125 -0.9375q0.3125 -0.34375 1.296875 -0.609375l6.453125 -1.671875zm23.03418 8.296875l0 3.28125q0 2.9375 -1.703125 5.625q-1.6875 2.671875 -4.828125 2.671875q-1.828125 0 -3.078125 -0.796875q-1.25 -0.796875 -2.375 -2.9375q-1.109375 -2.15625 -1.109375 -4.5625l0 -3.28125q0 -2.921875 1.671875 -5.609375q1.6875 -2.6875 4.84375 -2.6875q1.796875 0 3.046875 0.796875q1.25 0.78125 2.390625 2.9375q1.140625 2.140625 1.140625 4.5625zm-3.015625 0q0 -2.453125 -1.375 -4.28125q-0.765625 -1.015625 -2.171875 -1.015625q-1.375 0 -2.234375 1.109375q-1.296875 1.6875 -1.296875 4.1875l0 3.28125q0 2.46875 1.375 4.28125q0.765625 1.015625 2.1875 1.015625q1.34375 0 2.203125 -1.109375q1.3125 -1.6875 1.3125 -4.1875l0 -3.28125zm21.018555 0l0 3.28125q0 2.9375 -1.703125 5.625q-1.6875 2.671875 -4.828125 2.671875q-1.828125 0 -3.078125 -0.796875q-1.25 -0.796875 -2.375 -2.9375q-1.109375 -2.15625 -1.109375 -4.5625l0 -3.28125q0 -2.921875 1.671875 -5.609375q1.6875 -2.6875 4.84375 -2.6875q1.796875 0 3.046875 0.796875q1.25 0.78125 2.390625 2.9375q1.140625 2.140625 1.140625 4.5625zm-3.015625 0q0 -2.453125 -1.375 -4.28125q-0.765625 -1.015625 -2.171875 -1.015625q-1.375 0 -2.234375 1.109375q-1.296875 1.6875 -1.296875 4.1875l0 3.28125q0 2.46875 1.375 4.28125q0.765625 1.015625 2.1875 1.015625q1.34375 0 2.203125 -1.109375q1.3125 -1.6875 1.3125 -4.1875l0 -3.28125zm15.987305 -8.296875l0 16.4375l3.03125 0q1.09375 0 1.546875 0.421875q0.46875 0.40625 0.46875 1.078125q0 0.671875 -0.46875 1.09375q-0.453125 0.40625 -1.546875 0.40625l-9.0625 0q-1.09375 0 -1.5625 -0.40625q-0.453125 -0.421875 -0.453125 -1.109375q0 -0.65625 0.453125 -1.0625q0.46875 -0.421875 1.5625 -0.421875l3.03125 0l0 -12.53125l-2.6875 0.703125q-0.640625 0.171875 -0.96875 0.171875q-0.5625 0 -0.984375 -0.453125q-0.421875 -0.453125 -0.421875 -1.109375q0 -0.59375 0.3125 -0.9375q0.3125 -0.34375 1.296875 -0.609375l6.453125 -1.671875zm23.03418 8.296875l0 3.28125q0 2.9375 -1.703125 5.625q-1.6875 2.671875 -4.828125 2.671875q-1.828125 0 -3.078125 -0.796875q-1.25 -0.796875 -2.375 -2.9375q-1.109375 -2.15625 -1.109375 -4.5625l0 -3.28125q0 -2.921875 1.671875 -5.609375q1.6875 -2.6875 4.84375 -2.6875q1.796875 0 3.046875 0.796875q1.25 0.78125 2.390625 2.9375q1.140625 2.140625 1.140625 4.5625zm-3.015625 0q0 -2.453125 -1.375 -4.28125q-0.765625 -1.015625 -2.171875 -1.015625q-1.375 0 -2.234375 1.109375q-1.296875 1.6875 -1.296875 4.1875l0 3.28125q0 2.46875 1.375 4.28125q0.765625 1.015625 2.1875 1.015625q1.34375 0 2.203125 -1.109375q1.3125 -1.6875 1.3125 -4.1875l0 -3.28125zm15.987305 -8.296875l0 16.4375l3.03125 0q1.09375 0 1.546875 0.421875q0.46875 0.40625 0.46875 1.078125q0 0.671875 -0.46875 1.09375q-0.453125 0.40625 -1.546875 0.40625l-9.0625 0q-1.09375 0 -1.5625 -0.40625q-0.453125 -0.421875 -0.453125 -1.109375q0 -0.65625 0.453125 -1.0625q0.46875 -0.421875 1.5625 -0.421875l3.03125 0l0 -12.53125l-2.6875 0.703125q-0.640625 0.171875 -0.96875 0.171875q-0.5625 0 -0.984375 -0.453125q-0.421875 -0.453125 -0.421875 -1.109375q0 -0.59375 0.3125 -0.9375q0.3125 -0.34375 1.296875 -0.609375l6.453125 -1.671875z" fill-rule="nonzero"/><path fill="#000000" d="m289.58743 375.90668l0 3.28125q0 2.9375 -1.703125 5.625q-1.6875 2.671875 -4.828125 2.671875q-1.828125 0 -3.078125 -0.796875q-1.25 -0.796875 -2.375 -2.9375q-1.109375 -2.15625 -1.109375 -4.5625l0 -3.28125q0 -2.921875 1.671875 -5.609375q1.6875 -2.6875 4.84375 -2.6875q1.796875 0 3.046875 0.796875q1.25 0.78125 2.390625 2.9375q1.140625 2.140625 1.140625 4.5625zm-3.015625 0q0 -2.453125 -1.375 -4.28125q-0.765625 -1.015625 -2.171875 -1.015625q-1.375 0 -2.234375 1.109375q-1.296875 1.6875 -1.296875 4.1875l0 3.28125q0 2.46875 1.375 4.28125q0.765625 1.015625 2.1875 1.015625q1.34375 0 2.203125 -1.109375q1.3125 -1.6875 1.3125 -4.1875l0 -3.28125zm21.018555 0l0 3.28125q0 2.9375 -1.703125 5.625q-1.6875 2.671875 -4.828125 2.671875q-1.828125 0 -3.078125 -0.796875q-1.25 -0.796875 -2.375 -2.9375q-1.109375 -2.15625 -1.109375 -4.5625l0 -3.28125q0 -2.921875 1.671875 -5.609375q1.6875 -2.6875 4.84375 -2.6875q1.796875 0 3.046875 0.796875q1.25 0.78125 2.390625 2.9375q1.140625 2.140625 1.140625 4.5625zm-3.015625 0q0 -2.453125 -1.375 -4.28125q-0.765625 -1.015625 -2.171875 -1.015625q-1.375 0 -2.234375 1.109375q-1.296875 1.6875 -1.296875 4.1875l0 3.28125q0 2.46875 1.375 4.28125q0.765625 1.015625 2.1875 1.015625q1.34375 0 2.203125 -1.109375q1.3125 -1.6875 1.3125 -4.1875l0 -3.28125zm15.987305 -8.296875l0 16.4375l3.03125 0q1.09375 0 1.546875 0.421875q0.46875 0.40625 0.46875 1.078125q0 0.671875 -0.46875 1.09375q-0.453125 0.40625 -1.546875 0.40625l-9.0625 0q-1.09375 0 -1.5625 -0.40625q-0.453125 -0.421875 -0.453125 -1.109375q0 -0.65625 0.453125 -1.0625q0.46875 -0.421875 1.5625 -0.421875l3.03125 0l0 -12.53125l-2.6875 0.703125q-0.640625 0.171875 -0.96875 0.171875q-0.5625 0 -0.984375 -0.453125q-0.421875 -0.453125 -0.421875 -1.109375q0 -0.59375 0.3125 -0.9375q0.3125 -0.34375 1.296875 -0.609375l6.453125 -1.671875zm23.03418 8.296875l0 3.28125q0 2.9375 -1.703125 5.625q-1.6875 2.671875 -4.828125 2.671875q-1.828125 0 -3.078125 -0.796875q-1.25 -0.796875 -2.375 -2.9375q-1.109375 -2.15625 -1.109375 -4.5625l0 -3.28125q0 -2.921875 1.671875 -5.609375q1.6875 -2.6875 4.84375 -2.6875q1.796875 0 3.046875 0.796875q1.25 0.78125 2.390625 2.9375q1.140625 2.140625 1.140625 4.5625zm-3.015625 0q0 -2.453125 -1.375 -4.28125q-0.765625 -1.015625 -2.171875 -1.015625q-1.375 0 -2.234375 1.109375q-1.296875 1.6875 -1.296875 4.1875l0 3.28125q0 2.46875 1.375 4.28125q0.765625 1.015625 2.1875 1.015625q1.34375 0 2.203125 -1.109375q1.3125 -1.6875 1.3125 -4.1875l0 -3.28125zm15.987305 -8.296875l0 16.4375l3.03125 0q1.09375 0 1.546875 0.421875q0.46875 0.40625 0.46875 1.078125q0 0.671875 -0.46875 1.09375q-0.453125 0.40625 -1.546875 0.40625l-9.0625 0q-1.09375 0 -1.5625 -0.40625q-0.453125 -0.421875 -0.453125 -1.109375q0 -0.65625 0.453125 -1.0625q0.46875 -0.421875 1.5625 -0.421875l3.03125 0l0 -12.53125l-2.6875 0.703125q-0.640625 0.171875 -0.96875 0.171875q-0.5625 0 -0.984375 -0.453125q-0.421875 -0.453125 -0.421875 -1.109375q0 -0.59375 0.3125 -0.9375q0.3125 -0.34375 1.296875 -0.609375l6.453125 -1.671875zm23.03418 8.296875l0 3.28125q0 2.9375 -1.703125 5.625q-1.6875 2.671875 -4.828125 2.671875q-1.828125 0 -3.078125 -0.796875q-1.25 -0.796875 -2.375 -2.9375q-1.109375 -2.15625 -1.109375 -4.5625l0 -3.28125q0 -2.921875 1.671875 -5.609375q1.6875 -2.6875 4.84375 -2.6875q1.796875 0 3.046875 0.796875q1.25 0.78125 2.390625 2.9375q1.140625 2.140625 1.140625 4.5625zm-3.015625 0q0 -2.453125 -1.375 -4.28125q-0.765625 -1.015625 -2.171875 -1.015625q-1.375 0 -2.234375 1.109375q-1.296875 1.6875 -1.296875 4.1875l0 3.28125q0 2.46875 1.375 4.28125q0.765625 1.015625 2.1875 1.015625q1.34375 0 2.203125 -1.109375q1.3125 -1.6875 1.3125 -4.1875l0 -3.28125zm15.987305 -8.296875l0 16.4375l3.03125 0q1.09375 0 1.546875 0.421875q0.46875 0.40625 0.46875 1.078125q0 0.671875 -0.46875 1.09375q-0.453125 0.40625 -1.546875 0.40625l-9.0625 0q-1.09375 0 -1.5625 -0.40625q-0.453125 -0.421875 -0.453125 -1.109375q0 -0.65625 0.453125 -1.0625q0.46875 -0.421875 1.5625 -0.421875l3.03125 0l0 -12.53125l-2.6875 0.703125q-0.640625 0.171875 -0.96875 0.171875q-0.5625 0 -0.984375 -0.453125q-0.421875 -0.453125 -0.421875 -1.109375q0 -0.59375 0.3125 -0.9375q0.3125 -0.34375 1.296875 -0.609375l6.453125 -1.671875zm23.03418 8.296875l0 3.28125q0 2.9375 -1.703125 5.625q-1.6875 2.671875 -4.828125 2.671875q-1.828125 0 -3.078125 -0.796875q-1.25 -0.796875 -2.375 -2.9375q-1.109375 -2.15625 -1.109375 -4.5625l0 -3.28125q0 -2.921875 1.671875 -5.609375q1.6875 -2.6875 4.84375 -2.6875q1.796875 0 3.046875 0.796875q1.25 0.78125 2.390625 2.9375q1.140625 2.140625 1.140625 4.5625zm-3.015625 0q0 -2.453125 -1.375 -4.28125q-0.765625 -1.015625 -2.171875 -1.015625q-1.375 0 -2.234375 1.109375q-1.296875 1.6875 -1.296875 4.1875l0 3.28125q0 2.46875 1.375 4.28125q0.765625 1.015625 2.1875 1.015625q1.34375 0 2.203125 -1.109375q1.3125 -1.6875 1.3125 -4.1875l0 -3.28125z" fill-rule="nonzero"/><path fill="#000000" d="m289.58743 429.90665l0 3.28125q0 2.9375 -1.703125 5.625q-1.6875 2.671875 -4.828125 2.671875q-1.828125 0 -3.078125 -0.796875q-1.25 -0.796875 -2.375 -2.9375q-1.109375 -2.15625 -1.109375 -4.5625l0 -3.28125q0 -2.921875 1.671875 -5.609375q1.6875 -2.6875 4.84375 -2.6875q1.796875 0 3.046875 0.796875q1.25 0.78125 2.390625 2.9375q1.140625 2.140625 1.140625 4.5625zm-3.015625 0q0 -2.453125 -1.375 -4.28125q-0.765625 -1.015625 -2.171875 -1.015625q-1.375 0 -2.234375 1.109375q-1.296875 1.6875 -1.296875 4.1875l0 3.28125q0 2.46875 1.375 4.28125q0.765625 1.015625 2.1875 1.015625q1.34375 0 2.203125 -1.109375q1.3125 -1.6875 1.3125 -4.1875l0 -3.28125zm15.987305 -8.296875l0 16.4375l3.03125 0q1.09375 0 1.546875 0.421875q0.46875 0.40625 0.46875 1.078125q0 0.671875 -0.46875 1.09375q-0.453125 0.40625 -1.546875 0.40625l-9.0625 0q-1.09375 0 -1.5625 -0.40625q-0.453125 -0.421875 -0.453125 -1.109375q0 -0.65625 0.453125 -1.0625q0.46875 -0.421875 1.5625 -0.421875l3.03125 0l0 -12.53125l-2.6875 0.703125q-0.640625 0.171875 -0.96875 0.171875q-0.5625 0 -0.984375 -0.453125q-0.421875 -0.453125 -0.421875 -1.109375q0 -0.59375 0.3125 -0.9375q0.3125 -0.34375 1.296875 -0.609375l6.453125 -1.671875zm23.03418 8.296875l0 3.28125q0 2.9375 -1.703125 5.625q-1.6875 2.671875 -4.828125 2.671875q-1.828125 0 -3.078125 -0.796875q-1.25 -0.796875 -2.375 -2.9375q-1.109375 -2.15625 -1.109375 -4.5625l0 -3.28125q0 -2.921875 1.671875 -5.609375q1.6875 -2.6875 4.84375 -2.6875q1.796875 0 3.046875 0.796875q1.25 0.78125 2.390625 2.9375q1.140625 2.140625 1.140625 4.5625zm-3.015625 0q0 -2.453125 -1.375 -4.28125q-0.765625 -1.015625 -2.171875 -1.015625q-1.375 0 -2.234375 1.109375q-1.296875 1.6875 -1.296875 4.1875l0 3.28125q0 2.46875 1.375 4.28125q0.765625 1.015625 2.1875 1.015625q1.34375 0 2.203125 -1.109375q1.3125 -1.6875 1.3125 -4.1875l0 -3.28125zm21.018555 0l0 3.28125q0 2.9375 -1.703125 5.625q-1.6875 2.671875 -4.828125 2.671875q-1.828125 0 -3.078125 -0.796875q-1.25 -0.796875 -2.375 -2.9375q-1.109375 -2.15625 -1.109375 -4.5625l0 -3.28125q0 -2.921875 1.671875 -5.609375q1.6875 -2.6875 4.84375 -2.6875q1.796875 0 3.046875 0.796875q1.25 0.78125 2.390625 2.9375q1.140625 2.140625 1.140625 4.5625zm-3.015625 0q0 -2.453125 -1.375 -4.28125q-0.765625 -1.015625 -2.171875 -1.015625q-1.375 0 -2.234375 1.109375q-1.296875 1.6875 -1.296875 4.1875l0 3.28125q0 2.46875 1.375 4.28125q0.765625 1.015625 2.1875 1.015625q1.34375 0 2.203125 -1.109375q1.3125 -1.6875 1.3125 -4.1875l0 -3.28125zm21.018555 0l0 3.28125q0 2.9375 -1.703125 5.625q-1.6875 2.671875 -4.828125 2.671875q-1.828125 0 -3.078125 -0.796875q-1.25 -0.796875 -2.375 -2.9375q-1.109375 -2.15625 -1.109375 -4.5625l0 -3.28125q0 -2.921875 1.671875 -5.609375q1.6875 -2.6875 4.84375 -2.6875q1.796875 0 3.046875 0.796875q1.25 0.78125 2.390625 2.9375q1.140625 2.140625 1.140625 4.5625zm-3.015625 0q0 -2.453125 -1.375 -4.28125q-0.765625 -1.015625 -2.171875 -1.015625q-1.375 0 -2.234375 1.109375q-1.296875 1.6875 -1.296875 4.1875l0 3.28125q0 2.46875 1.375 4.28125q0.765625 1.015625 2.1875 1.015625q1.34375 0 2.203125 -1.109375q1.3125 -1.6875 1.3125 -4.1875l0 -3.28125zm15.987305 -8.296875l0 16.4375l3.03125 0q1.09375 0 1.546875 0.421875q0.46875 0.40625 0.46875 1.078125q0 0.671875 -0.46875 1.09375q-0.453125 0.40625 -1.546875 0.40625l-9.0625 0q-1.09375 0 -1.5625 -0.40625q-0.453125 -0.421875 -0.453125 -1.109375q0 -0.65625 0.453125 -1.0625q0.46875 -0.421875 1.5625 -0.421875l3.03125 0l0 -12.53125l-2.6875 0.703125q-0.640625 0.171875 -0.96875 0.171875q-0.5625 0 -0.984375 -0.453125q-0.421875 -0.453125 -0.421875 -1.109375q0 -0.59375 0.3125 -0.9375q0.3125 -0.34375 1.296875 -0.609375l6.453125 -1.671875zm23.03418 8.296875l0 3.28125q0 2.9375 -1.703125 5.625q-1.6875 2.671875 -4.828125 2.671875q-1.828125 0 -3.078125 -0.796875q-1.25 -0.796875 -2.375 -2.9375q-1.109375 -2.15625 -1.109375 -4.5625l0 -3.28125q0 -2.921875 1.671875 -5.609375q1.6875 -2.6875 4.84375 -2.6875q1.796875 0 3.046875 0.796875q1.25 0.78125 2.390625 2.9375q1.140625 2.140625 1.140625 4.5625zm-3.015625 0q0 -2.453125 -1.375 -4.28125q-0.765625 -1.015625 -2.171875 -1.015625q-1.375 0 -2.234375 1.109375q-1.296875 1.6875 -1.296875 4.1875l0 3.28125q0 2.46875 1.375 4.28125q0.765625 1.015625 2.1875 1.015625q1.34375 0 2.203125 -1.109375q1.3125 -1.6875 1.3125 -4.1875l0 -3.28125zm21.018555 0l0 3.28125q0 2.9375 -1.703125 5.625q-1.6875 2.671875 -4.828125 2.671875q-1.828125 0 -3.078125 -0.796875q-1.25 -0.796875 -2.375 -2.9375q-1.109375 -2.15625 -1.109375 -4.5625l0 -3.28125q0 -2.921875 1.671875 -5.609375q1.6875 -2.6875 4.84375 -2.6875q1.796875 0 3.046875 0.796875q1.25 0.78125 2.390625 2.9375q1.140625 2.140625 1.140625 4.5625zm-3.015625 0q0 -2.453125 -1.375 -4.28125q-0.765625 -1.015625 -2.171875 -1.015625q-1.375 0 -2.234375 1.109375q-1.296875 1.6875 -1.296875 4.1875l0 3.28125q0 2.46875 1.375 4.28125q0.765625 1.015625 2.1875 1.015625q1.34375 0 2.203125 -1.109375q1.3125 -1.6875 1.3125 -4.1875l0 -3.28125z" fill-rule="nonzero"/><path fill="#000000" fill-opacity="0.0" d="m51.422573 107.33071l-16.0 0l0 -79.0l266.0 0l0 11.999998" fill-rule="evenodd"/><path stroke="#000000" stroke-width="2.0" stroke-linejoin="round" stroke-linecap="butt" d="m51.422573 107.33071l-16.0 0l0 -79.0l266.0 0l0 11.999998" fill-rule="evenodd"/><path fill="#000000" fill-opacity="0.0" d="m319.2815 40.24672l0 -24.249344l-297.25195 0l0 146.24934l29.25197 0" fill-rule="evenodd"/><path stroke="#000000" stroke-width="2.0" stroke-linejoin="round" stroke-linecap="butt" d="m319.2815 40.24672l0 -24.249344l-297.25195 0l0 146.24934l29.25197 0" fill-rule="evenodd"/><path fill="#000000" fill-opacity="0.0" d="m337.50525 39.997375l0 -36.498688l-328.4987 0l0 213.49869l42.498688 0" fill-rule="evenodd"/><path stroke="#000000" stroke-width="2.0" stroke-linejoin="round" stroke-linecap="butt" d="m337.50525 39.997375l0 -36.498688l-328.4987 0l0 213.49869l42.498688 0" fill-rule="evenodd"/><path fill="#000000" fill-opacity="0.0" d="m355.11417 40.498688l0 -40.0" fill-rule="evenodd"/><path stroke="#000000" stroke-width="2.0" stroke-linejoin="round" stroke-linecap="butt" stroke-dasharray="8.0,6.0" d="m355.11417 40.498688l0 -40.0" fill-rule="evenodd"/><path fill="#000000" fill-opacity="0.0" d="m373.61417 40.498688l0 -40.0" fill-rule="evenodd"/><path stroke="#000000" stroke-width="2.0" stroke-linejoin="round" stroke-linecap="butt" stroke-dasharray="8.0,6.0" d="m373.61417 40.498688l0 -40.0" fill-rule="evenodd"/><path fill="#000000" fill-opacity="0.0" d="m391.11417 39.998688l0 -40.0" fill-rule="evenodd"/><path stroke="#000000" stroke-width="2.0" stroke-linejoin="round" stroke-linecap="butt" stroke-dasharray="8.0,6.0" d="m391.11417 39.998688l0 -40.0" fill-rule="evenodd"/><path fill="#000000" fill-opacity="0.0" d="m409.11417 40.498688l0 -40.0" fill-rule="evenodd"/><path stroke="#000000" stroke-width="2.0" stroke-linejoin="round" stroke-linecap="butt" stroke-dasharray="8.0,6.0" d="m409.11417 40.498688l0 -40.0" fill-rule="evenodd"/><path fill="#000000" fill-opacity="0.0" d="m51.33858 324.0l-51.33858 0.25198364" fill-rule="evenodd"/><path stroke="#000000" stroke-width="2.0" stroke-linejoin="round" stroke-linecap="butt" stroke-dasharray="8.0,6.0" d="m51.33858 324.0l-51.33858 0.25198364" fill-rule="evenodd"/><path fill="#000000" fill-opacity="0.0" d="m51.33858 377.5013l-51.33858 0.25198364" fill-rule="evenodd"/><path stroke="#000000" stroke-width="2.0" stroke-linejoin="round" stroke-linecap="butt" stroke-dasharray="8.0,6.0" d="m51.33858 377.5013l-51.33858 0.25198364" fill-rule="evenodd"/><path fill="#000000" fill-opacity="0.0" d="m51.33858 431.00262l-51.33858 0.25198364" fill-rule="evenodd"/><path stroke="#000000" stroke-width="2.0" stroke-linejoin="round" stroke-linecap="butt" stroke-dasharray="8.0,6.0" d="m51.33858 431.00262l-51.33858 0.25198364" fill-rule="evenodd"/><path fill="#000000" fill-opacity="0.0" d="m51.33858 269.74802l-51.33858 0.25198364" fill-rule="evenodd"/><path stroke="#000000" stroke-width="2.0" stroke-linejoin="round" stroke-linecap="butt" stroke-dasharray="8.0,6.0" d="m51.33858 269.74802l-51.33858 0.25198364" fill-rule="evenodd"/><path fill="#000000" fill-opacity="0.0" d="m211.52362 107.49475l52.0 0" fill-rule="evenodd"/><path stroke="#000000" stroke-width="2.0" stroke-linejoin="round" stroke-linecap="butt" d="m211.52362 107.49475l40.0 0" fill-rule="evenodd"/><path fill="#000000" stroke="#000000" stroke-width="2.0" stroke-linecap="butt" d="m251.52362 110.79822l9.076202 -3.3034668l-9.076202 -3.3034668z" fill-rule="evenodd"/><path fill="#000000" fill-opacity="0.0" d="m211.52362 161.62204l52.0 0" fill-rule="evenodd"/><path stroke="#000000" stroke-width="2.0" stroke-linejoin="round" stroke-linecap="butt" d="m211.52362 161.62204l40.0 0" fill-rule="evenodd"/><path fill="#000000" stroke="#000000" stroke-width="2.0" stroke-linecap="butt" d="m251.52362 164.9255l9.076202 -3.3034668l-9.076202 -3.3034515z" fill-rule="evenodd"/><path fill="#000000" fill-opacity="0.0" d="m211.52362 215.74803l52.0 0" fill-rule="evenodd"/><path stroke="#000000" stroke-width="2.0" stroke-linejoin="round" stroke-linecap="butt" d="m211.52362 215.74803l40.0 0" fill-rule="evenodd"/><path fill="#000000" stroke="#000000" stroke-width="2.0" stroke-linecap="butt" d="m251.52362 219.0515l9.076202 -3.3034668l-9.076202 -3.3034668z" fill-rule="evenodd"/><path fill="#000000" fill-opacity="0.0" d="m211.52362 269.87402l52.0 0" fill-rule="evenodd"/><path stroke="#000000" stroke-width="2.0" stroke-linejoin="round" stroke-linecap="butt" d="m211.52362 269.87402l40.0 0" fill-rule="evenodd"/><path fill="#000000" stroke="#000000" stroke-width="2.0" stroke-linecap="butt" d="m251.52362 273.1775l9.076202 -3.3034668l-9.076202 -3.3034668z" fill-rule="evenodd"/><path fill="#000000" fill-opacity="0.0" d="m211.52362 324.0l52.0 0" fill-rule="evenodd"/><path stroke="#000000" stroke-width="2.0" stroke-linejoin="round" stroke-linecap="butt" d="m211.52362 324.0l40.0 0" fill-rule="evenodd"/><path fill="#000000" stroke="#000000" stroke-width="2.0" stroke-linecap="butt" d="m251.52362 327.30347l9.076202 -3.3034668l-9.076202 -3.3034668z" fill-rule="evenodd"/><path fill="#000000" fill-opacity="0.0" d="m211.52362 377.6273l52.0 0" fill-rule="evenodd"/><path stroke="#000000" stroke-width="2.0" stroke-linejoin="round" stroke-linecap="butt" d="m211.52362 377.6273l40.0 0" fill-rule="evenodd"/><path fill="#000000" stroke="#000000" stroke-width="2.0" stroke-linecap="butt" d="m251.52362 380.93076l9.076202 -3.3034668l-9.076202 -3.3034668z" fill-rule="evenodd"/><path fill="#000000" fill-opacity="0.0" d="m211.52493 431.1286l52.0 0" fill-rule="evenodd"/><path stroke="#000000" stroke-width="2.0" stroke-linejoin="round" stroke-linecap="butt" d="m211.52493 431.1286l40.0 0" fill-rule="evenodd"/><path fill="#000000" stroke="#000000" stroke-width="2.0" stroke-linecap="butt" d="m251.52493 434.43207l9.076202 -3.3034668l-9.076202 -3.3034668z" fill-rule="evenodd"/></g></svg>