<svg role="img" height="420" width="362" xmlns="http://www.w3.org/2000/svg">
<path d="M 348,0 L 358,0 L 358,40 L 348,40L 348,0 z" fill="rgba(0,238,136,1.0)"/>
<path d="M 336,0 L 346,0 L 346,40 L 336,40L 336,0 z" fill="rgba(0,105,202,1.0)"/>
<path d="M 324,0 L 334,0 L 334,40 L 324,40L 324,0 z" fill="rgba(0,88,211,1.0)"/>
<path d="M 312,0 L 322,0 L 322,40 L 312,40L 312,0 z" fill="rgba(0,123,193,1.0)"/>
<path d="M 300,0 L 310,0 L 310,40 L 300,40L 300,0 z" fill="rgba(0,52,229,1.0)"/>
<path d="M 288,0 L 298,0 L 298,40 L 288,40L 288,0 z" fill="rgba(0,150,179,1.0)"/>
<path d="M 276,0 L 286,0 L 286,40 L 276,40L 276,0 z" fill="rgba(0,211,149,1.0)"/>
<path d="M 264,0 L 274,0 L 274,40 L 264,40L 264,0 z" fill="rgba(0,0,255,1.0)"/>
<path d="M 252,0 L 262,0 L 262,40 L 252,40L 252,0 z" fill="rgba(0,35,237,1.0)"/>
<path d="M 240,0 L 250,0 L 250,40 L 240,40L 240,0 z" fill="rgba(0,229,140,1.0)"/>
<path d="M 228,0 L 238,0 L 238,40 L 228,40L 228,0 z" fill="rgba(0,44,233,1.0)"/>
<path d="M 216,0 L 226,0 L 226,40 L 216,40L 216,0 z" fill="rgba(0,97,206,1.0)"/>
<path d="M 204,0 L 214,0 L 214,40 L 204,40L 204,0 z" fill="rgba(0,185,162,1.0)"/>
<path d="M 192,0 L 202,0 L 202,40 L 192,40L 192,0 z" fill="rgba(0,176,167,1.0)"/>
<path d="M 180,0 L 190,0 L 190,40 L 180,40L 180,0 z" fill="rgba(0,194,158,1.0)"/>
<path d="M 168,0 L 178,0 L 178,40 L 168,40L 168,0 z" fill="rgba(0,220,145,1.0)"/>
<path d="M 156,0 L 166,0 L 166,40 L 156,40L 156,0 z" fill="rgba(0,17,246,1.0)"/>
<path d="M 144,0 L 154,0 L 154,40 L 144,40L 144,0 z" fill="rgba(0,141,184,1.0)"/>
<path d="M 132,0 L 142,0 L 142,40 L 132,40L 132,0 z" fill="rgba(0,79,215,1.0)"/>
<path d="M 120,0 L 130,0 L 130,40 L 120,40L 120,0 z" fill="rgba(0,247,131,1.0)"/>
<path d="M 108,0 L 118,0 L 118,40 L 108,40L 108,0 z" fill="rgba(0,60,224,1.0)"/>
<path d="M 96,0 L 106,0 L 106,40 L 96,40L 96,0 z" fill="rgba(0,70,220,1.0)"/>
<path d="M 84,0 L 94,0 L 94,40 L 84,40L 84,0 z" fill="rgba(0,203,153,1.0)"/>
<path d="M 72,0 L 82,0 L 82,40 L 72,40L 72,0 z" fill="rgba(0,131,189,1.0)"/>
<path d="M 60,0 L 70,0 L 70,40 L 60,40L 60,0 z" fill="rgba(0,8,251,1.0)"/>
<path d="M 48,0 L 58,0 L 58,40 L 48,40L 48,0 z" fill="rgba(0,167,171,1.0)"/>
<path d="M 36,0 L 46,0 L 46,40 L 36,40L 36,0 z" fill="rgba(0,158,176,1.0)"/>
<path d="M 24,0 L 34,0 L 34,40 L 24,40L 24,0 z" fill="rgba(0,26,242,1.0)"/>
<path d="M 12,0 L 22,0 L 22,40 L 12,40L 12,0 z" fill="rgba(0,255,127,1.0)"/>
<path d="M 0,0 L 10,0 L 10,40 L 0,40L 0,0 z" fill="rgba(0,113,198,1.0)"/>
<path d="M 348,40 L 358,40 L 358,80 L 348,80L 348,40 z" fill="rgba(0,238,136,1.0)"/>
<path d="M 336,40 L 346,40 L 346,80 L 336,80L 336,40 z" fill="rgba(0,105,202,1.0)"/>
<path d="M 324,40 L 334,40 L 334,80 L 324,80L 324,40 z" fill="rgba(0,88,211,1.0)"/>
<path d="M 312,40 L 322,40 L 322,80 L 312,80L 312,40 z" fill="rgba(0,123,193,1.0)"/>
<path d="M 300,40 L 310,40 L 310,80 L 300,80L 300,40 z" fill="rgba(0,52,229,1.0)"/>
<path d="M 288,40 L 298,40 L 298,80 L 288,80L 288,40 z" fill="rgba(0,150,179,1.0)"/>
<path d="M 276,40 L 286,40 L 286,80 L 276,80L 276,40 z" fill="rgba(0,211,149,1.0)"/>
<path d="M 264,40 L 274,40 L 274,80 L 264,80L 264,40 z" fill="rgba(0,0,255,1.0)"/>
<path d="M 252,40 L 262,40 L 262,80 L 252,80L 252,40 z" fill="rgba(0,35,237,1.0)"/>
<path d="M 240,40 L 250,40 L 250,80 L 240,80L 240,40 z" fill="rgba(0,229,140,1.0)"/>
<path d="M 228,40 L 238,40 L 238,80 L 228,80L 228,40 z" fill="rgba(0,44,233,1.0)"/>
<path d="M 216,40 L 226,40 L 226,80 L 216,80L 216,40 z" fill="rgba(0,97,206,1.0)"/>
<path d="M 204,40 L 214,40 L 214,80 L 204,80L 204,40 z" fill="rgba(0,185,162,1.0)"/>
<path d="M 192,40 L 202,40 L 202,80 L 192,80L 192,40 z" fill="rgba(0,176,167,1.0)"/>
<path d="M 180,40 L 190,40 L 190,80 L 180,80L 180,40 z" fill="rgba(0,194,158,1.0)"/>
<path d="M 168,40 L 178,40 L 178,80 L 168,80L 168,40 z" fill="rgba(0,220,145,1.0)"/>
<path d="M 156,40 L 166,40 L 166,80 L 156,80L 156,40 z" fill="rgba(0,17,246,1.0)"/>
<path d="M 144,40 L 154,40 L 154,80 L 144,80L 144,40 z" fill="rgba(0,141,184,1.0)"/>
<path d="M 132,40 L 142,40 L 142,80 L 132,80L 132,40 z" fill="rgba(0,79,215,1.0)"/>
<path d="M 120,40 L 130,40 L 130,80 L 120,80L 120,40 z" fill="rgba(0,247,131,1.0)"/>
<path d="M 108,40 L 118,40 L 118,80 L 108,80L 108,40 z" fill="rgba(0,60,224,1.0)"/>
<path d="M 96,40 L 106,40 L 106,80 L 96,80L 96,40 z" fill="rgba(0,70,220,1.0)"/>
<path d="M 84,40 L 94,40 L 94,80 L 84,80L 84,40 z" fill="rgba(0,203,153,1.0)"/>
<path d="M 72,40 L 82,40 L 82,80 L 72,80L 72,40 z" fill="rgba(0,131,189,1.0)"/>
<path d="M 60,40 L 70,40 L 70,80 L 60,80L 60,40 z" fill="rgba(0,8,251,1.0)"/>
<path d="M 48,40 L 58,40 L 58,80 L 48,80L 48,40 z" fill="rgba(0,167,171,1.0)"/>
<path d="M 36,40 L 46,40 L 46,80 L 36,80L 36,40 z" fill="rgba(0,158,176,1.0)"/>
<path d="M 24,40 L 34,40 L 22,80 L 12,80L 24,40 z" fill="rgba(0,26,242,1.0)"/>
<path d="M 12,40 L 22,40 L 34,80 L 24,80L 12,40 z" fill="rgba(0,255,127,1.0)"/>
<path d="M 0,40 L 10,40 L 10,80 L 0,80L 0,40 z" fill="rgba(0,113,198,1.0)"/>
<path d="M 348,80 L 358,80 L 358,120 L 348,120L 348,80 z" fill="rgba(0,238,136,1.0)"/>
<path d="M 336,80 L 346,80 L 346,120 L 336,120L 336,80 z" fill="rgba(0,105,202,1.0)"/>
<path d="M 324,80 L 334,80 L 334,120 L 324,120L 324,80 z" fill="rgba(0,88,211,1.0)"/>
<path d="M 312,80 L 322,80 L 322,120 L 312,120L 312,80 z" fill="rgba(0,123,193,1.0)"/>
<path d="M 300,80 L 310,80 L 310,120 L 300,120L 300,80 z" fill="rgba(0,52,229,1.0)"/>
<path d="M 288,80 L 298,80 L 298,120 L 288,120L 288,80 z" fill="rgba(0,150,179,1.0)"/>
<path d="M 276,80 L 286,80 L 286,120 L 276,120L 276,80 z" fill="rgba(0,211,149,1.0)"/>
<path d="M 264,80 L 274,80 L 274,120 L 264,120L 264,80 z" fill="rgba(0,0,255,1.0)"/>
<path d="M 252,80 L 262,80 L 262,120 L 252,120L 252,80 z" fill="rgba(0,35,237,1.0)"/>
<path d="M 240,80 L 250,80 L 250,120 L 240,120L 240,80 z" fill="rgba(0,229,140,1.0)"/>
<path d="M 228,80 L 238,80 L 238,120 L 228,120L 228,80 z" fill="rgba(0,44,233,1.0)"/>
<path d="M 216,80 L 226,80 L 226,120 L 216,120L 216,80 z" fill="rgba(0,97,206,1.0)"/>
<path d="M 204,80 L 214,80 L 214,120 L 204,120L 204,80 z" fill="rgba(0,185,162,1.0)"/>
<path d="M 192,80 L 202,80 L 202,120 L 192,120L 192,80 z" fill="rgba(0,176,167,1.0)"/>
<path d="M 180,80 L 190,80 L 190,120 L 180,120L 180,80 z" fill="rgba(0,194,158,1.0)"/>
<path d="M 168,80 L 178,80 L 178,120 L 168,120L 168,80 z" fill="rgba(0,220,145,1.0)"/>
<path d="M 156,80 L 166,80 L 166,120 L 156,120L 156,80 z" fill="rgba(0,17,246,1.0)"/>
<path d="M 144,80 L 154,80 L 154,120 L 144,120L 144,80 z" fill="rgba(0,141,184,1.0)"/>
<path d="M 132,80 L 142,80 L 142,120 L 132,120L 132,80 z" fill="rgba(0,79,215,1.0)"/>
<path d="M 120,80 L 130,80 L 130,120 L 120,120L 120,80 z" fill="rgba(0,247,131,1.0)"/>
<path d="M 108,80 L 118,80 L 118,120 L 108,120L 108,80 z" fill="rgba(0,60,224,1.0)"/>
<path d="M 96,80 L 106,80 L 106,120 L 96,120L 96,80 z" fill="rgba(0,70,220,1.0)"/>
<path d="M 84,80 L 94,80 L 94,120 L 84,120L 84,80 z" fill="rgba(0,203,153,1.0)"/>
<path d="M 72,80 L 82,80 L 82,120 L 72,120L 72,80 z" fill="rgba(0,131,189,1.0)"/>
<path d="M 60,80 L 70,80 L 70,120 L 60,120L 60,80 z" fill="rgba(0,8,251,1.0)"/>
<path d="M 48,80 L 58,80 L 58,120 L 48,120L 48,80 z" fill="rgba(0,167,171,1.0)"/>
<path d="M 36,80 L 46,80 L 46,120 L 36,120L 36,80 z" fill="rgba(0,158,176,1.0)"/>
<path d="M 24,80 L 34,80 L 34,120 L 24,120L 24,80 z" fill="rgba(0,255,127,1.0)"/>
<path d="M 12,80 L 22,80 L 10,120 L 0,120L 12,80 z" fill="rgba(0,26,242,1.0)"/>
<path d="M 0,80 L 10,80 L 22,120 L 12,120L 0,80 z" fill="rgba(0,113,198,1.0)"/>
<path d="M 348,120 L 358,120 L 358,160 L 348,160L 348,120 z" fill="rgba(0,238,136,1.0)"/>
<path d="M 336,120 L 346,120 L 346,160 L 336,160L 336,120 z" fill="rgba(0,105,202,1.0)"/>
<path d="M 324,120 L 334,120 L 334,160 L 324,160L 324,120 z" fill="rgba(0,88,211,1.0)"/>
<path d="M 312,120 L 322,120 L 322,160 L 312,160L 312,120 z" fill="rgba(0,123,193,1.0)"/>
<path d="M 300,120 L 310,120 L 310,160 L 300,160L 300,120 z" fill="rgba(0,52,229,1.0)"/>
<path d="M 288,120 L 298,120 L 298,160 L 288,160L 288,120 z" fill="rgba(0,150,179,1.0)"/>
<path d="M 276,120 L 286,120 L 286,160 L 276,160L 276,120 z" fill="rgba(0,211,149,1.0)"/>
<path d="M 264,120 L 274,120 L 274,160 L 264,160L 264,120 z" fill="rgba(0,0,255,1.0)"/>
<path d="M 252,120 L 262,120 L 262,160 L 252,160L 252,120 z" fill="rgba(0,35,237,1.0)"/>
<path d="M 240,120 L 250,120 L 250,160 L 240,160L 240,120 z" fill="rgba(0,229,140,1.0)"/>
<path d="M 228,120 L 238,120 L 238,160 L 228,160L 228,120 z" fill="rgba(0,44,233,1.0)"/>
<path d="M 216,120 L 226,120 L 226,160 L 216,160L 216,120 z" fill="rgba(0,97,206,1.0)"/>
<path d="M 204,120 L 214,120 L 214,160 L 204,160L 204,120 z" fill="rgba(0,185,162,1.0)"/>
<path d="M 192,120 L 202,120 L 202,160 L 192,160L 192,120 z" fill="rgba(0,176,167,1.0)"/>
<path d="M 180,120 L 190,120 L 190,160 L 180,160L 180,120 z" fill="rgba(0,194,158,1.0)"/>
<path d="M 168,120 L 178,120 L 178,160 L 168,160L 168,120 z" fill="rgba(0,220,145,1.0)"/>
<path d="M 156,120 L 166,120 L 166,160 L 156,160L 156,120 z" fill="rgba(0,17,246,1.0)"/>
<path d="M 144,120 L 154,120 L 154,160 L 144,160L 144,120 z" fill="rgba(0,141,184,1.0)"/>
<path d="M 132,120 L 142,120 L 142,160 L 132,160L 132,120 z" fill="rgba(0,79,215,1.0)"/>
<path d="M 120,120 L 130,120 L 130,160 L 120,160L 120,120 z" fill="rgba(0,247,131,1.0)"/>
<path d="M 108,120 L 118,120 L 118,160 L 108,160L 108,120 z" fill="rgba(0,60,224,1.0)"/>
<path d="M 96,120 L 106,120 L 106,160 L 96,160L 96,120 z" fill="rgba(0,70,220,1.0)"/>
<path d="M 84,120 L 94,120 L 94,160 L 84,160L 84,120 z" fill="rgba(0,203,153,1.0)"/>
<path d="M 72,120 L 82,120 L 82,160 L 72,160L 72,120 z" fill="rgba(0,131,189,1.0)"/>
<path d="M 60,120 L 70,120 L 70,160 L 60,160L 60,120 z" fill="rgba(0,8,251,1.0)"/>
<path d="M 48,120 L 58,120 L 58,160 L 48,160L 48,120 z" fill="rgba(0,167,171,1.0)"/>
<path d="M 36,120 L 46,120 L 34,160 L 24,160L 36,120 z" fill="rgba(0,158,176,1.0)"/>
<path d="M 24,120 L 34,120 L 46,160 L 36,160L 24,120 z" fill="rgba(0,255,127,1.0)"/>
<path d="M 12,120 L 22,120 L 22,160 L 12,160L 12,120 z" fill="rgba(0,113,198,1.0)"/>
<path d="M 0,120 L 10,120 L 10,160 L 0,160L 0,120 z" fill="rgba(0,26,242,1.0)"/>
<path d="M 348,160 L 358,160 L 358,200 L 348,200L 348,160 z" fill="rgba(0,238,136,1.0)"/>
<path d="M 336,160 L 346,160 L 346,200 L 336,200L 336,160 z" fill="rgba(0,105,202,1.0)"/>
<path d="M 324,160 L 334,160 L 334,200 L 324,200L 324,160 z" fill="rgba(0,88,211,1.0)"/>
<path d="M 312,160 L 322,160 L 322,200 L 312,200L 312,160 z" fill="rgba(0,123,193,1.0)"/>
<path d="M 300,160 L 310,160 L 310,200 L 300,200L 300,160 z" fill="rgba(0,52,229,1.0)"/>
<path d="M 288,160 L 298,160 L 298,200 L 288,200L 288,160 z" fill="rgba(0,150,179,1.0)"/>
<path d="M 276,160 L 286,160 L 286,200 L 276,200L 276,160 z" fill="rgba(0,211,149,1.0)"/>
<path d="M 264,160 L 274,160 L 274,200 L 264,200L 264,160 z" fill="rgba(0,0,255,1.0)"/>
<path d="M 252,160 L 262,160 L 262,200 L 252,200L 252,160 z" fill="rgba(0,35,237,1.0)"/>
<path d="M 240,160 L 250,160 L 250,200 L 240,200L 240,160 z" fill="rgba(0,229,140,1.0)"/>
<path d="M 228,160 L 238,160 L 238,200 L 228,200L 228,160 z" fill="rgba(0,44,233,1.0)"/>
<path d="M 216,160 L 226,160 L 226,200 L 216,200L 216,160 z" fill="rgba(0,97,206,1.0)"/>
<path d="M 204,160 L 214,160 L 214,200 L 204,200L 204,160 z" fill="rgba(0,185,162,1.0)"/>
<path d="M 192,160 L 202,160 L 202,200 L 192,200L 192,160 z" fill="rgba(0,176,167,1.0)"/>
<path d="M 180,160 L 190,160 L 190,200 L 180,200L 180,160 z" fill="rgba(0,194,158,1.0)"/>
<path d="M 168,160 L 178,160 L 178,200 L 168,200L 168,160 z" fill="rgba(0,220,145,1.0)"/>
<path d="M 156,160 L 166,160 L 166,200 L 156,200L 156,160 z" fill="rgba(0,17,246,1.0)"/>
<path d="M 144,160 L 154,160 L 154,200 L 144,200L 144,160 z" fill="rgba(0,141,184,1.0)"/>
<path d="M 132,160 L 142,160 L 142,200 L 132,200L 132,160 z" fill="rgba(0,79,215,1.0)"/>
<path d="M 120,160 L 130,160 L 130,200 L 120,200L 120,160 z" fill="rgba(0,247,131,1.0)"/>
<path d="M 108,160 L 118,160 L 118,200 L 108,200L 108,160 z" fill="rgba(0,60,224,1.0)"/>
<path d="M 96,160 L 106,160 L 106,200 L 96,200L 96,160 z" fill="rgba(0,70,220,1.0)"/>
<path d="M 84,160 L 94,160 L 94,200 L 84,200L 84,160 z" fill="rgba(0,203,153,1.0)"/>
<path d="M 72,160 L 82,160 L 82,200 L 72,200L 72,160 z" fill="rgba(0,131,189,1.0)"/>
<path d="M 60,160 L 70,160 L 70,200 L 60,200L 60,160 z" fill="rgba(0,8,251,1.0)"/>
<path d="M 48,160 L 58,160 L 46,200 L 36,200L 48,160 z" fill="rgba(0,167,171,1.0)"/>
<path d="M 36,160 L 46,160 L 58,200 L 48,200L 36,160 z" fill="rgba(0,255,127,1.0)"/>
<path d="M 24,160 L 34,160 L 34,200 L 24,200L 24,160 z" fill="rgba(0,158,176,1.0)"/>
<path d="M 12,160 L 22,160 L 22,200 L 12,200L 12,160 z" fill="rgba(0,113,198,1.0)"/>
<path d="M 0,160 L 10,160 L 10,200 L 0,200L 0,160 z" fill="rgba(0,26,242,1.0)"/>
<path d="M 348,200 L 358,200 L 358,240 L 348,240L 348,200 z" fill="rgba(0,238,136,1.0)"/>
<path d="M 336,200 L 346,200 L 346,240 L 336,240L 336,200 z" fill="rgba(0,105,202,1.0)"/>
<path d="M 324,200 L 334,200 L 334,240 L 324,240L 324,200 z" fill="rgba(0,88,211,1.0)"/>
<path d="M 312,200 L 322,200 L 322,240 L 312,240L 312,200 z" fill="rgba(0,123,193,1.0)"/>
<path d="M 300,200 L 310,200 L 310,240 L 300,240L 300,200 z" fill="rgba(0,52,229,1.0)"/>
<path d="M 288,200 L 298,200 L 298,240 L 288,240L 288,200 z" fill="rgba(0,150,179,1.0)"/>
<path d="M 276,200 L 286,200 L 286,240 L 276,240L 276,200 z" fill="rgba(0,211,149,1.0)"/>
<path d="M 264,200 L 274,200 L 274,240 L 264,240L 264,200 z" fill="rgba(0,0,255,1.0)"/>
<path d="M 252,200 L 262,200 L 262,240 L 252,240L 252,200 z" fill="rgba(0,35,237,1.0)"/>
<path d="M 240,200 L 250,200 L 250,240 L 240,240L 240,200 z" fill="rgba(0,229,140,1.0)"/>
<path d="M 228,200 L 238,200 L 238,240 L 228,240L 228,200 z" fill="rgba(0,44,233,1.0)"/>
<path d="M 216,200 L 226,200 L 226,240 L 216,240L 216,200 z" fill="rgba(0,97,206,1.0)"/>
<path d="M 204,200 L 214,200 L 214,240 L 204,240L 204,200 z" fill="rgba(0,185,162,1.0)"/>
<path d="M 192,200 L 202,200 L 202,240 L 192,240L 192,200 z" fill="rgba(0,176,167,1.0)"/>
<path d="M 180,200 L 190,200 L 190,240 L 180,240L 180,200 z" fill="rgba(0,194,158,1.0)"/>
<path d="M 168,200 L 178,200 L 178,240 L 168,240L 168,200 z" fill="rgba(0,220,145,1.0)"/>
<path d="M 156,200 L 166,200 L 166,240 L 156,240L 156,200 z" fill="rgba(0,17,246,1.0)"/>
<path d="M 144,200 L 154,200 L 154,240 L 144,240L 144,200 z" fill="rgba(0,141,184,1.0)"/>
<path d="M 132,200 L 142,200 L 142,240 L 132,240L 132,200 z" fill="rgba(0,79,215,1.0)"/>
<path d="M 120,200 L 130,200 L 130,240 L 120,240L 120,200 z" fill="rgba(0,247,131,1.0)"/>
<path d="M 108,200 L 118,200 L 118,240 L 108,240L 108,200 z" fill="rgba(0,60,224,1.0)"/>
<path d="M 96,200 L 106,200 L 106,240 L 96,240L 96,200 z" fill="rgba(0,70,220,1.0)"/>
<path d="M 84,200 L 94,200 L 94,240 L 84,240L 84,200 z" fill="rgba(0,203,153,1.0)"/>
<path d="M 72,200 L 82,200 L 82,240 L 72,240L 72,200 z" fill="rgba(0,131,189,1.0)"/>
<path d="M 60,200 L 70,200 L 58,240 L 48,240L 60,200 z" fill="rgba(0,8,251,1.0)"/>
<path d="M 48,200 L 58,200 L 70,240 L 60,240L 48,200 z" fill="rgba(0,255,127,1.0)"/>
<path d="M 36,200 L 46,200 L 46,240 L 36,240L 36,200 z" fill="rgba(0,167,171,1.0)"/>
<path d="M 24,200 L 34,200 L 34,240 L 24,240L 24,200 z" fill="rgba(0,158,176,1.0)"/>
<path d="M 12,200 L 22,200 L 22,240 L 12,240L 12,200 z" fill="rgba(0,113,198,1.0)"/>
<path d="M 0,200 L 10,200 L 10,240 L 0,240L 0,200 z" fill="rgba(0,26,242,1.0)"/>
<path d="M 348,240 L 358,240 L 358,280 L 348,280L 348,240 z" fill="rgba(0,238,136,1.0)"/>
<path d="M 336,240 L 346,240 L 346,280 L 336,280L 336,240 z" fill="rgba(0,105,202,1.0)"/>
<path d="M 324,240 L 334,240 L 334,280 L 324,280L 324,240 z" fill="rgba(0,88,211,1.0)"/>
<path d="M 312,240 L 322,240 L 322,280 L 312,280L 312,240 z" fill="rgba(0,123,193,1.0)"/>
<path d="M 300,240 L 310,240 L 310,280 L 300,280L 300,240 z" fill="rgba(0,52,229,1.0)"/>
<path d="M 288,240 L 298,240 L 298,280 L 288,280L 288,240 z" fill="rgba(0,150,179,1.0)"/>
<path d="M 276,240 L 286,240 L 286,280 L 276,280L 276,240 z" fill="rgba(0,211,149,1.0)"/>
<path d="M 264,240 L 274,240 L 274,280 L 264,280L 264,240 z" fill="rgba(0,0,255,1.0)"/>
<path d="M 252,240 L 262,240 L 262,280 L 252,280L 252,240 z" fill="rgba(0,35,237,1.0)"/>
<path d="M 240,240 L 250,240 L 250,280 L 240,280L 240,240 z" fill="rgba(0,229,140,1.0)"/>
<path d="M 228,240 L 238,240 L 238,280 L 228,280L 228,240 z" fill="rgba(0,44,233,1.0)"/>
<path d="M 216,240 L 226,240 L 226,280 L 216,280L 216,240 z" fill="rgba(0,97,206,1.0)"/>
<path d="M 204,240 L 214,240 L 214,280 L 204,280L 204,240 z" fill="rgba(0,185,162,1.0)"/>
<path d="M 192,240 L 202,240 L 202,280 L 192,280L 192,240 z" fill="rgba(0,176,167,1.0)"/>
<path d="M 180,240 L 190,240 L 190,280 L 180,280L 180,240 z" fill="rgba(0,194,158,1.0)"/>
<path d="M 168,240 L 178,240 L 178,280 L 168,280L 168,240 z" fill="rgba(0,220,145,1.0)"/>
<path d="M 156,240 L 166,240 L 166,280 L 156,280L 156,240 z" fill="rgba(0,17,246,1.0)"/>
<path d="M 144,240 L 154,240 L 154,280 L 144,280L 144,240 z" fill="rgba(0,141,184,1.0)"/>
<path d="M 132,240 L 142,240 L 142,280 L 132,280L 132,240 z" fill="rgba(0,79,215,1.0)"/>
<path d="M 120,240 L 130,240 L 130,280 L 120,280L 120,240 z" fill="rgba(0,247,131,1.0)"/>
<path d="M 108,240 L 118,240 L 118,280 L 108,280L 108,240 z" fill="rgba(0,60,224,1.0)"/>
<path d="M 96,240 L 106,240 L 106,280 L 96,280L 96,240 z" fill="rgba(0,70,220,1.0)"/>
<path d="M 84,240 L 94,240 L 94,280 L 84,280L 84,240 z" fill="rgba(0,203,153,1.0)"/>
<path d="M 72,240 L 82,240 L 82,280 L 72,280L 72,240 z" fill="rgba(0,131,189,1.0)"/>
<path d="M 60,240 L 70,240 L 70,280 L 60,280L 60,240 z" fill="rgba(0,255,127,1.0)"/>
<path d="M 48,240 L 58,240 L 46,280 L 36,280L 48,240 z" fill="rgba(0,8,251,1.0)"/>
<path d="M 36,240 L 46,240 L 58,280 L 48,280L 36,240 z" fill="rgba(0,167,171,1.0)"/>
<path d="M 24,240 L 34,240 L 34,280 L 24,280L 24,240 z" fill="rgba(0,158,176,1.0)"/>
<path d="M 12,240 L 22,240 L 22,280 L 12,280L 12,240 z" fill="rgba(0,113,198,1.0)"/>
<path d="M 0,240 L 10,240 L 10,280 L 0,280L 0,240 z" fill="rgba(0,26,242,1.0)"/>
<path d="M 348,280 L 358,280 L 358,320 L 348,320L 348,280 z" fill="rgba(0,238,136,1.0)"/>
<path d="M 336,280 L 346,280 L 346,320 L 336,320L 336,280 z" fill="rgba(0,105,202,1.0)"/>
<path d="M 324,280 L 334,280 L 334,320 L 324,320L 324,280 z" fill="rgba(0,88,211,1.0)"/>
<path d="M 312,280 L 322,280 L 322,320 L 312,320L 312,280 z" fill="rgba(0,123,193,1.0)"/>
<path d="M 300,280 L 310,280 L 310,320 L 300,320L 300,280 z" fill="rgba(0,52,229,1.0)"/>
<path d="M 288,280 L 298,280 L 298,320 L 288,320L 288,280 z" fill="rgba(0,150,179,1.0)"/>
<path d="M 276,280 L 286,280 L 286,320 L 276,320L 276,280 z" fill="rgba(0,211,149,1.0)"/>
<path d="M 264,280 L 274,280 L 274,320 L 264,320L 264,280 z" fill="rgba(0,0,255,1.0)"/>
<path d="M 252,280 L 262,280 L 262,320 L 252,320L 252,280 z" fill="rgba(0,35,237,1.0)"/>
<path d="M 240,280 L 250,280 L 250,320 L 240,320L 240,280 z" fill="rgba(0,229,140,1.0)"/>
<path d="M 228,280 L 238,280 L 238,320 L 228,320L 228,280 z" fill="rgba(0,44,233,1.0)"/>
<path d="M 216,280 L 226,280 L 226,320 L 216,320L 216,280 z" fill="rgba(0,97,206,1.0)"/>
<path d="M 204,280 L 214,280 L 214,320 L 204,320L 204,280 z" fill="rgba(0,185,162,1.0)"/>
<path d="M 192,280 L 202,280 L 202,320 L 192,320L 192,280 z" fill="rgba(0,176,167,1.0)"/>
<path d="M 180,280 L 190,280 L 190,320 L 180,320L 180,280 z" fill="rgba(0,194,158,1.0)"/>
<path d="M 168,280 L 178,280 L 178,320 L 168,320L 168,280 z" fill="rgba(0,220,145,1.0)"/>
<path d="M 156,280 L 166,280 L 166,320 L 156,320L 156,280 z" fill="rgba(0,17,246,1.0)"/>
<path d="M 144,280 L 154,280 L 154,320 L 144,320L 144,280 z" fill="rgba(0,141,184,1.0)"/>
<path d="M 132,280 L 142,280 L 142,320 L 132,320L 132,280 z" fill="rgba(0,79,215,1.0)"/>
<path d="M 120,280 L 130,280 L 130,320 L 120,320L 120,280 z" fill="rgba(0,247,131,1.0)"/>
<path d="M 108,280 L 118,280 L 118,320 L 108,320L 108,280 z" fill="rgba(0,60,224,1.0)"/>
<path d="M 96,280 L 106,280 L 106,320 L 96,320L 96,280 z" fill="rgba(0,70,220,1.0)"/>
<path d="M 84,280 L 94,280 L 94,320 L 84,320L 84,280 z" fill="rgba(0,203,153,1.0)"/>
<path d="M 72,280 L 82,280 L 82,320 L 72,320L 72,280 z" fill="rgba(0,131,189,1.0)"/>
<path d="M 60,280 L 70,280 L 70,320 L 60,320L 60,280 z" fill="rgba(0,255,127,1.0)"/>
<path d="M 48,280 L 58,280 L 58,320 L 48,320L 48,280 z" fill="rgba(0,167,171,1.0)"/>
<path d="M 36,280 L 46,280 L 34,320 L 24,320L 36,280 z" fill="rgba(0,8,251,1.0)"/>
<path d="M 24,280 L 34,280 L 46,320 L 36,320L 24,280 z" fill="rgba(0,158,176,1.0)"/>
<path d="M 12,280 L 22,280 L 22,320 L 12,320L 12,280 z" fill="rgba(0,113,198,1.0)"/>
<path d="M 0,280 L 10,280 L 10,320 L 0,320L 0,280 z" fill="rgba(0,26,242,1.0)"/>
<path d="M 348,320 L 358,320 L 358,360 L 348,360L 348,320 z" fill="rgba(0,238,136,1.0)"/>
<path d="M 336,320 L 346,320 L 346,360 L 336,360L 336,320 z" fill="rgba(0,105,202,1.0)"/>
<path d="M 324,320 L 334,320 L 334,360 L 324,360L 324,320 z" fill="rgba(0,88,211,1.0)"/>
<path d="M 312,320 L 322,320 L 322,360 L 312,360L 312,320 z" fill="rgba(0,123,193,1.0)"/>
<path d="M 300,320 L 310,320 L 310,360 L 300,360L 300,320 z" fill="rgba(0,52,229,1.0)"/>
<path d="M 288,320 L 298,320 L 298,360 L 288,360L 288,320 z" fill="rgba(0,150,179,1.0)"/>
<path d="M 276,320 L 286,320 L 286,360 L 276,360L 276,320 z" fill="rgba(0,211,149,1.0)"/>
<path d="M 264,320 L 274,320 L 274,360 L 264,360L 264,320 z" fill="rgba(0,0,255,1.0)"/>
<path d="M 252,320 L 262,320 L 262,360 L 252,360L 252,320 z" fill="rgba(0,35,237,1.0)"/>
<path d="M 240,320 L 250,320 L 250,360 L 240,360L 240,320 z" fill="rgba(0,229,140,1.0)"/>
<path d="M 228,320 L 238,320 L 238,360 L 228,360L 228,320 z" fill="rgba(0,44,233,1.0)"/>
<path d="M 216,320 L 226,320 L 226,360 L 216,360L 216,320 z" fill="rgba(0,97,206,1.0)"/>
<path d="M 204,320 L 214,320 L 214,360 L 204,360L 204,320 z" fill="rgba(0,185,162,1.0)"/>
<path d="M 192,320 L 202,320 L 202,360 L 192,360L 192,320 z" fill="rgba(0,176,167,1.0)"/>
<path d="M 180,320 L 190,320 L 190,360 L 180,360L 180,320 z" fill="rgba(0,194,158,1.0)"/>
<path d="M 168,320 L 178,320 L 178,360 L 168,360L 168,320 z" fill="rgba(0,220,145,1.0)"/>
<path d="M 156,320 L 166,320 L 166,360 L 156,360L 156,320 z" fill="rgba(0,17,246,1.0)"/>
<path d="M 144,320 L 154,320 L 154,360 L 144,360L 144,320 z" fill="rgba(0,141,184,1.0)"/>
<path d="M 132,320 L 142,320 L 142,360 L 132,360L 132,320 z" fill="rgba(0,79,215,1.0)"/>
<path d="M 120,320 L 130,320 L 130,360 L 120,360L 120,320 z" fill="rgba(0,247,131,1.0)"/>
<path d="M 108,320 L 118,320 L 118,360 L 108,360L 108,320 z" fill="rgba(0,60,224,1.0)"/>
<path d="M 96,320 L 106,320 L 106,360 L 96,360L 96,320 z" fill="rgba(0,70,220,1.0)"/>
<path d="M 84,320 L 94,320 L 94,360 L 84,360L 84,320 z" fill="rgba(0,203,153,1.0)"/>
<path d="M 72,320 L 82,320 L 82,360 L 72,360L 72,320 z" fill="rgba(0,131,189,1.0)"/>
<path d="M 60,320 L 70,320 L 70,360 L 60,360L 60,320 z" fill="rgba(0,255,127,1.0)"/>
<path d="M 48,320 L 58,320 L 58,360 L 48,360L 48,320 z" fill="rgba(0,167,171,1.0)"/>
<path d="M 36,320 L 46,320 L 46,360 L 36,360L 36,320 z" fill="rgba(0,158,176,1.0)"/>
<path d="M 24,320 L 34,320 L 22,360 L 12,360L 24,320 z" fill="rgba(0,8,251,1.0)"/>
<path d="M 12,320 L 22,320 L 34,360 L 24,360L 12,320 z" fill="rgba(0,113,198,1.0)"/>
<path d="M 0,320 L 10,320 L 10,360 L 0,360L 0,320 z" fill="rgba(0,26,242,1.0)"/>
<path d="M 348,360 L 358,360 L 358,400 L 348,400L 348,360 z" fill="rgba(0,238,136,1.0)"/>
<path d="M 336,360 L 346,360 L 346,400 L 336,400L 336,360 z" fill="rgba(0,105,202,1.0)"/>
<path d="M 324,360 L 334,360 L 334,400 L 324,400L 324,360 z" fill="rgba(0,88,211,1.0)"/>
<path d="M 312,360 L 322,360 L 322,400 L 312,400L 312,360 z" fill="rgba(0,123,193,1.0)"/>
<path d="M 300,360 L 310,360 L 310,400 L 300,400L 300,360 z" fill="rgba(0,52,229,1.0)"/>
<path d="M 288,360 L 298,360 L 298,400 L 288,400L 288,360 z" fill="rgba(0,150,179,1.0)"/>
<path d="M 276,360 L 286,360 L 286,400 L 276,400L 276,360 z" fill="rgba(0,211,149,1.0)"/>
<path d="M 264,360 L 274,360 L 274,400 L 264,400L 264,360 z" fill="rgba(0,0,255,1.0)"/>
<path d="M 252,360 L 262,360 L 262,400 L 252,400L 252,360 z" fill="rgba(0,35,237,1.0)"/>
<path d="M 240,360 L 250,360 L 250,400 L 240,400L 240,360 z" fill="rgba(0,229,140,1.0)"/>
<path d="M 228,360 L 238,360 L 238,400 L 228,400L 228,360 z" fill="rgba(0,44,233,1.0)"/>
<path d="M 216,360 L 226,360 L 226,400 L 216,400L 216,360 z" fill="rgba(0,97,206,1.0)"/>
<path d="M 204,360 L 214,360 L 214,400 L 204,400L 204,360 z" fill="rgba(0,185,162,1.0)"/>
<path d="M 192,360 L 202,360 L 202,400 L 192,400L 192,360 z" fill="rgba(0,176,167,1.0)"/>
<path d="M 180,360 L 190,360 L 190,400 L 180,400L 180,360 z" fill="rgba(0,194,158,1.0)"/>
<path d="M 168,360 L 178,360 L 178,400 L 168,400L 168,360 z" fill="rgba(0,220,145,1.0)"/>
<path d="M 156,360 L 166,360 L 166,400 L 156,400L 156,360 z" fill="rgba(0,17,246,1.0)"/>
<path d="M 144,360 L 154,360 L 154,400 L 144,400L 144,360 z" fill="rgba(0,141,184,1.0)"/>
<path d="M 132,360 L 142,360 L 142,400 L 132,400L 132,360 z" fill="rgba(0,79,215,1.0)"/>
<path d="M 120,360 L 130,360 L 130,400 L 120,400L 120,360 z" fill="rgba(0,247,131,1.0)"/>
<path d="M 108,360 L 118,360 L 118,400 L 108,400L 108,360 z" fill="rgba(0,60,224,1.0)"/>
<path d="M 96,360 L 106,360 L 106,400 L 96,400L 96,360 z" fill="rgba(0,70,220,1.0)"/>
<path d="M 84,360 L 94,360 L 94,400 L 84,400L 84,360 z" fill="rgba(0,203,153,1.0)"/>
<path d="M 72,360 L 82,360 L 82,400 L 72,400L 72,360 z" fill="rgba(0,131,189,1.0)"/>
<path d="M 60,360 L 70,360 L 70,400 L 60,400L 60,360 z" fill="rgba(0,255,127,1.0)"/>
<path d="M 48,360 L 58,360 L 58,400 L 48,400L 48,360 z" fill="rgba(0,167,171,1.0)"/>
<path d="M 36,360 L 46,360 L 46,400 L 36,400L 36,360 z" fill="rgba(0,158,176,1.0)"/>
<path d="M 24,360 L 34,360 L 34,400 L 24,400L 24,360 z" fill="rgba(0,113,198,1.0)"/>
<path d="M 12,360 L 22,360 L 10,400 L 0,400L 12,360 z" fill="rgba(0,8,251,1.0)"/>
<path d="M 0,360 L 10,360 L 22,400 L 12,400L 0,360 z" fill="rgba(0,26,242,1.0)"/>
<path d="M 348,400 L 358,400 L 358,440 L 348,440L 348,400 z" fill="rgba(0,238,136,1.0)"/>
<path d="M 336,400 L 346,400 L 346,440 L 336,440L 336,400 z" fill="rgba(0,105,202,1.0)"/>
<path d="M 324,400 L 334,400 L 334,440 L 324,440L 324,400 z" fill="rgba(0,88,211,1.0)"/>
<path d="M 312,400 L 322,400 L 322,440 L 312,440L 312,400 z" fill="rgba(0,123,193,1.0)"/>
<path d="M 300,400 L 310,400 L 310,440 L 300,440L 300,400 z" fill="rgba(0,52,229,1.0)"/>
<path d="M 288,400 L 298,400 L 298,440 L 288,440L 288,400 z" fill="rgba(0,150,179,1.0)"/>
<path d="M 276,400 L 286,400 L 286,440 L 276,440L 276,400 z" fill="rgba(0,211,149,1.0)"/>
<path d="M 264,400 L 274,400 L 274,440 L 264,440L 264,400 z" fill="rgba(0,0,255,1.0)"/>
<path d="M 252,400 L 262,400 L 262,440 L 252,440L 252,400 z" fill="rgba(0,35,237,1.0)"/>
<path d="M 240,400 L 250,400 L 250,440 L 240,440L 240,400 z" fill="rgba(0,229,140,1.0)"/>
<path d="M 228,400 L 238,400 L 238,440 L 228,440L 228,400 z" fill="rgba(0,44,233,1.0)"/>
<path d="M 216,400 L 226,400 L 226,440 L 216,440L 216,400 z" fill="rgba(0,97,206,1.0)"/>
<path d="M 204,400 L 214,400 L 214,440 L 204,440L 204,400 z" fill="rgba(0,185,162,1.0)"/>
<path d="M 192,400 L 202,400 L 202,440 L 192,440L 192,400 z" fill="rgba(0,176,167,1.0)"/>
<path d="M 180,400 L 190,400 L 190,440 L 180,440L 180,400 z" fill="rgba(0,194,158,1.0)"/>
<path d="M 168,400 L 178,400 L 178,440 L 168,440L 168,400 z" fill="rgba(0,220,145,1.0)"/>
<path d="M 156,400 L 166,400 L 166,440 L 156,440L 156,400 z" fill="rgba(0,17,246,1.0)"/>
<path d="M 144,400 L 154,400 L 154,440 L 144,440L 144,400 z" fill="rgba(0,141,184,1.0)"/>
<path d="M 132,400 L 142,400 L 142,440 L 132,440L 132,400 z" fill="rgba(0,79,215,1.0)"/>
<path d="M 120,400 L 130,400 L 130,440 L 120,440L 120,400 z" fill="rgba(0,247,131,1.0)"/>
<path d="M 108,400 L 118,400 L 118,440 L 108,440L 108,400 z" fill="rgba(0,60,224,1.0)"/>
<path d="M 96,400 L 106,400 L 106,440 L 96,440L 96,400 z" fill="rgba(0,70,220,1.0)"/>
<path d="M 84,400 L 94,400 L 94,440 L 84,440L 84,400 z" fill="rgba(0,203,153,1.0)"/>
<path d="M 72,400 L 82,400 L 70,440 L 60,440L 72,400 z" fill="rgba(0,131,189,1.0)"/>
<path d="M 60,400 L 70,400 L 82,440 L 72,440L 60,400 z" fill="rgba(0,255,127,1.0)"/>
<path d="M 48,400 L 58,400 L 58,440 L 48,440L 48,400 z" fill="rgba(0,167,171,1.0)"/>
<path d="M 36,400 L 46,400 L 46,440 L 36,440L 36,400 z" fill="rgba(0,158,176,1.0)"/>
<path d="M 24,400 L 34,400 L 34,440 L 24,440L 24,400 z" fill="rgba(0,113,198,1.0)"/>
<path d="M 12,400 L 22,400 L 22,440 L 12,440L 12,400 z" fill="rgba(0,26,242,1.0)"/>
<path d="M 0,400 L 10,400 L 10,440 L 0,440L 0,400 z" fill="rgba(0,8,251,1.0)"/>
<path d="M 348,440 L 358,440 L 358,480 L 348,480L 348,440 z" fill="rgba(0,238,136,1.0)"/>
<path d="M 336,440 L 346,440 L 346,480 L 336,480L 336,440 z" fill="rgba(0,105,202,1.0)"/>
<path d="M 324,440 L 334,440 L 334,480 L 324,480L 324,440 z" fill="rgba(0,88,211,1.0)"/>
<path d="M 312,440 L 322,440 L 322,480 L 312,480L 312,440 z" fill="rgba(0,123,193,1.0)"/>
<path d="M 300,440 L 310,440 L 310,480 L 300,480L 300,440 z" fill="rgba(0,52,229,1.0)"/>
<path d="M 288,440 L 298,440 L 298,480 L 288,480L 288,440 z" fill="rgba(0,150,179,1.0)"/>
<path d="M 276,440 L 286,440 L 286,480 L 276,480L 276,440 z" fill="rgba(0,211,149,1.0)"/>
<path d="M 264,440 L 274,440 L 274,480 L 264,480L 264,440 z" fill="rgba(0,0,255,1.0)"/>
<path d="M 252,440 L 262,440 L 262,480 L 252,480L 252,440 z" fill="rgba(0,35,237,1.0)"/>
<path d="M 240,440 L 250,440 L 250,480 L 240,480L 240,440 z" fill="rgba(0,229,140,1.0)"/>
<path d="M 228,440 L 238,440 L 238,480 L 228,480L 228,440 z" fill="rgba(0,44,233,1.0)"/>
<path d="M 216,440 L 226,440 L 226,480 L 216,480L 216,440 z" fill="rgba(0,97,206,1.0)"/>
<path d="M 204,440 L 214,440 L 214,480 L 204,480L 204,440 z" fill="rgba(0,185,162,1.0)"/>
<path d="M 192,440 L 202,440 L 202,480 L 192,480L 192,440 z" fill="rgba(0,176,167,1.0)"/>
<path d="M 180,440 L 190,440 L 190,480 L 180,480L 180,440 z" fill="rgba(0,194,158,1.0)"/>
<path d="M 168,440 L 178,440 L 178,480 L 168,480L 168,440 z" fill="rgba(0,220,145,1.0)"/>
<path d="M 156,440 L 166,440 L 166,480 L 156,480L 156,440 z" fill="rgba(0,17,246,1.0)"/>
<path d="M 144,440 L 154,440 L 154,480 L 144,480L 144,440 z" fill="rgba(0,141,184,1.0)"/>
<path d="M 132,440 L 142,440 L 142,480 L 132,480L 132,440 z" fill="rgba(0,79,215,1.0)"/>
<path d="M 120,440 L 130,440 L 130,480 L 120,480L 120,440 z" fill="rgba(0,247,131,1.0)"/>
<path d="M 108,440 L 118,440 L 118,480 L 108,480L 108,440 z" fill="rgba(0,60,224,1.0)"/>
<path d="M 96,440 L 106,440 L 106,480 L 96,480L 96,440 z" fill="rgba(0,70,220,1.0)"/>
<path d="M 84,440 L 94,440 L 94,480 L 84,480L 84,440 z" fill="rgba(0,203,153,1.0)"/>
<path d="M 72,440 L 82,440 L 82,480 L 72,480L 72,440 z" fill="rgba(0,255,127,1.0)"/>
<path d="M 60,440 L 70,440 L 58,480 L 48,480L 60,440 z" fill="rgba(0,131,189,1.0)"/>
<path d="M 48,440 L 58,440 L 70,480 L 60,480L 48,440 z" fill="rgba(0,167,171,1.0)"/>
<path d="M 36,440 L 46,440 L 46,480 L 36,480L 36,440 z" fill="rgba(0,158,176,1.0)"/>
<path d="M 24,440 L 34,440 L 34,480 L 24,480L 24,440 z" fill="rgba(0,113,198,1.0)"/>
<path d="M 12,440 L 22,440 L 22,480 L 12,480L 12,440 z" fill="rgba(0,26,242,1.0)"/>
<path d="M 0,440 L 10,440 L 10,480 L 0,480L 0,440 z" fill="rgba(0,8,251,1.0)"/>
</svg>
